<svg version="1.1" viewBox="0.0 0.0 960.0 720.0" fill="none" stroke="none" stroke-linecap="square" stroke-miterlimit="10" xmlns:xlink="http://www.w3.org/1999/xlink" xmlns="http://www.w3.org/2000/svg"><clipPath id="p.0"><path d="m0 0l960.0 0l0 720.0l-960.0 0l0 -720.0z" clip-rule="nonzero"/></clipPath><g clip-path="url(#p.0)"><path fill="#000000" fill-opacity="0.0" d="m0 0l960.0 0l0 720.0l-960.0 0z" fill-rule="evenodd"/><path fill="#000000" fill-opacity="0.0" d="m604.2651 125.08662l217.82678 0l0 205.22836l-217.82678 0z" fill-rule="evenodd"/><path stroke="#000000" stroke-width="1.0" stroke-linejoin="round" stroke-linecap="butt" d="m604.2651 125.08662l217.82678 0l0 205.22836l-217.82678 0z" fill-rule="evenodd"/><path fill="#000000" fill-opacity="0.0" d="m685.0656 223.88715l217.82678 0l0 205.22833l-217.82678 0z" fill-rule="evenodd"/><path stroke="#000000" stroke-width="1.0" stroke-linejoin="round" stroke-linecap="butt" d="m685.0656 223.88715l217.82678 0l0 205.22833l-217.82678 0z" fill-rule="evenodd"/><path fill="#000000" fill-opacity="0.0" d="m604.2651 330.31497l81.921265 99.87399" fill-rule="evenodd"/><path stroke="#000000" stroke-width="1.0" stroke-linejoin="round" stroke-linecap="butt" d="m604.2651 330.31497l81.921265 99.87399" fill-rule="evenodd"/><path fill="#000000" fill-opacity="0.0" d="m605.17847 126.002625l80.09448 98.99213" fill-rule="evenodd"/><path stroke="#000000" stroke-width="1.0" stroke-linejoin="round" stroke-linecap="butt" d="m605.17847 126.002625l80.09448 98.99213" fill-rule="evenodd"/><path fill="#000000" fill-opacity="0.0" d="m822.09186 330.31497l80.09448 99.87399" fill-rule="evenodd"/><path stroke="#000000" stroke-width="1.0" stroke-linejoin="round" stroke-linecap="butt" d="m822.09186 330.31497l80.09448 99.87399" fill-rule="evenodd"/><path fill="#000000" fill-opacity="0.0" d="m822.09186 125.08662l81.88977 99.02361" fill-rule="evenodd"/><path stroke="#000000" stroke-width="1.0" stroke-linejoin="round" stroke-linecap="butt" d="m822.09186 125.08662l81.88977 99.02361" fill-rule="evenodd"/><path fill="#000000" fill-opacity="0.0" d="m591.6798 343.80054l74.48816 88.188965" fill-rule="evenodd"/><path stroke="#000000" stroke-width="1.0" stroke-linejoin="round" stroke-linecap="butt" d="m593.8912 346.41867l70.06537 82.95267" fill-rule="evenodd"/><path fill="#000000" stroke="#000000" stroke-width="1.0" stroke-linecap="butt" d="m593.8912 346.41867l1.5847778 0.13345337l-2.8528442 -1.6347656l1.1345825 3.08609z" fill-rule="evenodd"/><path fill="#000000" stroke="#000000" stroke-width="1.0" stroke-linecap="butt" d="m663.9566 429.37137l-1.5848389 -0.13348389l2.8529053 1.6347961l-1.1345825 -3.0861206z" fill-rule="evenodd"/><path fill="#000000" fill-opacity="0.0" d="m686.17847 439.2021l220.50397 -1.0078735" fill-rule="evenodd"/><path stroke="#000000" stroke-width="1.0" stroke-linejoin="round" stroke-linecap="butt" d="m689.6056 439.18643l213.64972 -0.976532" fill-rule="evenodd"/><path fill="#000000" stroke="#000000" stroke-width="1.0" stroke-linecap="butt" d="m689.6055 439.18643l1.1194458 -1.1296997l-3.0845947 1.1386719l3.0948486 1.1104736z" fill-rule="evenodd"/><path fill="#000000" stroke="#000000" stroke-width="1.0" stroke-linecap="butt" d="m903.2554 438.2099l-1.1194458 1.1296997l3.0845947 -1.1387024l-3.0948486 -1.1104431z" fill-rule="evenodd"/><path fill="#000000" fill-opacity="0.0" d="m918.18634 223.88715l0.881897 202.70865" fill-rule="evenodd"/><path stroke="#000000" stroke-width="1.0" stroke-linejoin="round" stroke-linecap="butt" d="m918.2013 227.31421l0.85198975 195.85455" fill-rule="evenodd"/><path fill="#000000" stroke="#000000" stroke-width="1.0" stroke-linecap="butt" d="m918.20123 227.3142l1.1295166 1.1196747l-1.1380615 -3.0848389l-1.111084 3.094635z" fill-rule="evenodd"/><path fill="#000000" stroke="#000000" stroke-width="1.0" stroke-linecap="butt" d="m919.05334 423.16873l-1.1294556 -1.1196594l1.1380005 3.0848389l1.111145 -3.094635z" fill-rule="evenodd"/><path fill="#000000" fill-opacity="0.0" d="m952.19946 261.24146l0 128.0l-37.165344 0l0 -128.0z" fill-rule="evenodd"/><path fill="#000000" d="m929.11945 288.4185l0 -2.015625l3.875 0q1.234375 0 1.59375 -0.125q0.359375 -0.125 0.5625 -0.421875q0.203125 -0.296875 0.203125 -0.703125q0 -0.515625 -0.296875 -0.9375q-0.28125 -0.40625 -0.75 -0.5625q-0.46875 -0.15625 -1.75 -0.15625l-3.4375 0l0 -2.015625l7.59375 0l0 1.875l-1.109375 0q1.28125 1.0 1.28125 2.5q0 0.671875 -0.234375 1.21875q-0.234375 0.546875 -0.609375 0.828125q-0.375 0.296875 -0.84375 0.40625q-0.46875 0.109375 -1.359375 0.109375l-4.71875 0zm0 7.030731l1.140625 0q-0.609375 -0.40625 -0.96875 -1.09375q-0.34375 -0.671875 -0.34375 -1.421875q0 -0.765625 0.328125 -1.375q0.34375 -0.609375 0.953125 -0.875q0.609375 -0.265625 1.6875 -0.265625l4.796875 0l0 2.0l-3.484375 0q-1.609375 0 -1.96875 0.109375q-0.359375 0.109375 -0.578125 0.40625q-0.203125 0.296875 -0.203125 0.75q0 0.515625 0.28125 0.921875q0.28125 0.40625 0.703125 0.546875q0.421875 0.15625 2.046875 0.15625l3.203125 0l0 2.015625l-7.59375 0l0 -1.875zm7.59375 3.8120117l0 1.84375l-1.03125 0q1.203125 1.0 1.203125 2.375q0 0.734375 -0.296875 1.265625q-0.296875 0.53125 -0.90625 0.875q0.609375 0.5 0.90625 1.078125q0.296875 0.59375 0.296875 1.25q0 0.828125 -0.34375 1.40625q-0.328125 0.59375 -0.984375 0.875q-0.484375 0.203125 -1.578125 0.203125l-4.859375 0l0 -2.015625l4.34375 0q1.125 0 1.453125 -0.203125q0.4375 -0.28125 0.4375 -0.859375q0 -0.421875 -0.265625 -0.796875q-0.25 -0.359375 -0.75 -0.53125q-0.5 -0.171875 -1.5625 -0.171875l-3.65625 0l0 -2.0l4.171875 0q1.109375 0 1.421875 -0.109375q0.328125 -0.109375 0.484375 -0.34375q0.15625 -0.21875 0.15625 -0.609375q0 -0.453125 -0.25 -0.828125q-0.25 -0.375 -0.734375 -0.546875q-0.46875 -0.15625 -1.5625 -0.15625l-3.6875 0l0 -2.0l7.59375 0zm-3.734375 19.906738l-0.65625 2.046875q-1.71875 -0.46875 -2.546875 -1.578125q-0.828125 -1.09375 -0.828125 -2.78125q0 -2.078125 1.421875 -3.4375q1.421875 -1.34375 3.90625 -1.34375q2.609375 0 4.0625 1.359375q1.453125 1.359375 1.453125 3.5625q0 1.921875 -1.140625 3.125q-0.671875 0.71875 -1.9375 1.0625l-0.5 -2.09375q0.828125 -0.1875 1.296875 -0.78125q0.46875 -0.578125 0.46875 -1.421875q0 -1.171875 -0.84375 -1.90625q-0.828125 -0.71875 -2.703125 -0.71875q-1.984375 0 -2.84375 0.71875q-0.84375 0.71875 -0.84375 1.859375q0 0.84375 0.53125 1.453125q0.546875 0.609375 1.703125 0.875zm-3.859375 3.8499146l10.484375 0l0 2.015625l-10.484375 0l0 -2.015625zm0 9.07196l1.140625 0q-0.609375 -0.40625 -0.96875 -1.09375q-0.34375 -0.671875 -0.34375 -1.421875q0 -0.765625 0.328125 -1.375q0.34375 -0.609375 0.953125 -0.875q0.609375 -0.265625 1.6875 -0.265625l4.796875 0l0 2.0l-3.484375 0q-1.609375 0 -1.96875 0.109375q-0.359375 0.109375 -0.578125 0.40625q-0.203125 0.296875 -0.203125 0.75q0 0.515625 0.28125 0.921875q0.28125 0.40625 0.703125 0.546875q0.421875 0.15625 2.046875 0.15625l3.203125 0l0 2.015625l-7.59375 0l0 -1.875zm2.171875 3.2495117l0.296875 2.015625q-0.578125 0.125 -0.890625 0.515625q-0.296875 0.40625 -0.296875 1.109375q0 0.78125 0.28125 1.171875q0.203125 0.265625 0.546875 0.265625q0.21875 0 0.375 -0.140625q0.140625 -0.15625 0.265625 -0.671875q0.53125 -2.4375 0.984375 -3.078125q0.609375 -0.90625 1.703125 -0.90625q0.984375 0 1.65625 0.78125q0.671875 0.78125 0.671875 2.421875q0 1.546875 -0.515625 2.3125q-0.5 0.765625 -1.484375 1.046875l-0.359375 -1.90625q0.453125 -0.109375 0.6875 -0.453125q0.234375 -0.34375 0.234375 -0.96875q0 -0.796875 -0.21875 -1.140625q-0.15625 -0.234375 -0.40625 -0.234375q-0.21875 0 -0.375 0.203125q-0.203125 0.28125 -0.5625 1.875q-0.359375 1.609375 -0.890625 2.25q-0.546875 0.625 -1.5 0.625q-1.046875 0 -1.796875 -0.875q-0.75 -0.859375 -0.75 -2.578125q0 -1.546875 0.625 -2.453125q0.640625 -0.90625 1.71875 -1.1875zm5.421875 12.338593l-1.59375 0l0 -1.375l-3.0625 0q-0.9375 0 -1.09375 0.03125q-0.140625 0.046875 -0.25 0.1875q-0.09375 0.140625 -0.09375 0.34375q0 0.28125 0.1875 0.8125l-1.5625 0.171875q-0.296875 -0.703125 -0.296875 -1.59375q0 -0.546875 0.171875 -0.984375q0.1875 -0.421875 0.46875 -0.640625q0.296875 -0.203125 0.796875 -0.28125q0.359375 -0.0625 1.421875 -0.0625l3.3125 0l0 -0.921875l1.59375 0l0 0.921875l1.515625 0l1.171875 2.015625l-2.6875 0l0 1.375zm-5.171875 5.8025208l-0.34375 2.0q-1.09375 -0.375 -1.671875 -1.21875q-0.578125 -0.828125 -0.578125 -2.078125q0 -1.984375 1.296875 -2.9375q1.03125 -0.75 2.625 -0.75q1.875 0 2.9375 0.984375q1.078125 0.984375 1.078125 2.5q0 1.6875 -1.125 2.671875q-1.109375 0.984375 -3.421875 0.9375l0 -5.03125q-0.890625 0.015625 -1.390625 0.484375q-0.5 0.46875 -0.5 1.15625q0 0.46875 0.25 0.78125q0.265625 0.328125 0.84375 0.5zm2.03125 0.109375q0.875 -0.015625 1.328125 -0.453125q0.453125 -0.421875 0.453125 -1.03125q0 -0.671875 -0.484375 -1.09375q-0.46875 -0.421875 -1.296875 -0.421875l0 3.0zm-4.453125 5.572998l0 -2.015625l7.59375 0l0 1.859375l-1.078125 0q0.765625 0.484375 1.0 0.859375q0.25 0.390625 0.25 0.875q0 0.6875 -0.375 1.328125l-1.75 -0.625q0.328125 -0.5 0.328125 -0.9375q0 -0.421875 -0.234375 -0.71875q-0.234375 -0.296875 -0.84375 -0.46875q-0.609375 -0.15625 -2.546875 -0.15625l-2.34375 0zm2.171875 3.0629883l0.296875 2.015625q-0.578125 0.125 -0.890625 0.515625q-0.296875 0.40625 -0.296875 1.109375q0 0.78125 0.28125 1.171875q0.203125 0.265625 0.546875 0.265625q0.21875 0 0.375 -0.140625q0.140625 -0.15625 0.265625 -0.671875q0.53125 -2.4375 0.984375 -3.078125q0.609375 -0.90625 1.703125 -0.90625q0.984375 0 1.65625 0.78125q0.671875 0.78125 0.671875 2.421875q0 1.546875 -0.515625 2.3125q-0.5 0.765625 -1.484375 1.046875l-0.359375 -1.90625q0.453125 -0.109375 0.6875 -0.453125q0.234375 -0.34375 0.234375 -0.96875q0 -0.796875 -0.21875 -1.140625q-0.15625 -0.234375 -0.40625 -0.234375q-0.21875 0 -0.375 0.203125q-0.203125 0.28125 -0.5625 1.875q-0.359375 1.609375 -0.890625 2.25q-0.546875 0.625 -1.5 0.625q-1.046875 0 -1.796875 -0.875q-0.75 -0.859375 -0.75 -2.578125q0 -1.546875 0.625 -2.453125q0.640625 -0.90625 1.71875 -1.1875z" fill-rule="nonzero"/><path fill="#000000" fill-opacity="0.0" d="m672.9239 439.2021l242.11023 0l0 37.165375l-242.11023 0z" fill-rule="evenodd"/><path fill="#000000" d="m760.8308 462.2821l-2.015625 0l0 -3.875q0 -1.234375 -0.125 -1.59375q-0.125 -0.359375 -0.421875 -0.5625q-0.296875 -0.203125 -0.703125 -0.203125q-0.515625 0 -0.9375 0.296875q-0.40625 0.28125 -0.5625 0.75q-0.15625 0.46875 -0.15625 1.75l0 3.4375l-2.015625 0l0 -7.59375l1.875 0l0 1.109375q1.0 -1.28125 2.5 -1.28125q0.671875 0 1.21875 0.234375q0.546875 0.234375 0.828125 0.609375q0.296875 0.375 0.40625 0.84375q0.109375 0.46875 0.109375 1.359375l0 4.71875zm7.0307617 0l0 -1.140625q-0.40625 0.609375 -1.09375 0.96875q-0.671875 0.34375 -1.421875 0.34375q-0.765625 0 -1.375 -0.328125q-0.609375 -0.34375 -0.875 -0.953125q-0.265625 -0.609375 -0.265625 -1.6875l0 -4.796875l2.0 0l0 3.484375q0 1.609375 0.109375 1.96875q0.109375 0.359375 0.40625 0.578125q0.296875 0.203125 0.75 0.203125q0.515625 0 0.921875 -0.28125q0.40625 -0.28125 0.546875 -0.703125q0.15625 -0.421875 0.15625 -2.046875l0 -3.203125l2.015625 0l0 7.59375l-1.875 0zm3.8120117 -7.59375l1.84375 0l0 1.03125q1.0 -1.203125 2.375 -1.203125q0.734375 0 1.265625 0.296875q0.53125 0.296875 0.875 0.90625q0.5 -0.609375 1.078125 -0.90625q0.59375 -0.296875 1.25 -0.296875q0.828125 0 1.40625 0.34375q0.59375 0.328125 0.875 0.984375q0.203125 0.484375 0.203125 1.578125l0 4.859375l-2.015625 0l0 -4.34375q0 -1.125 -0.203125 -1.453125q-0.28125 -0.4375 -0.859375 -0.4375q-0.421875 0 -0.796875 0.265625q-0.359375 0.25 -0.53125 0.75q-0.171875 0.5 -0.171875 1.5625l0 3.65625l-2.0 0l0 -4.171875q0 -1.109375 -0.109375 -1.421875q-0.109375 -0.328125 -0.34375 -0.484375q-0.21875 -0.15625 -0.609375 -0.15625q-0.453125 0 -0.828125 0.25q-0.375 0.25 -0.546875 0.734375q-0.15625 0.46875 -0.15625 1.5625l0 3.6875l-2.0 0l0 -7.59375zm19.906738 3.734375l2.046875 0.65625q-0.46875 1.71875 -1.578125 2.546875q-1.09375 0.828125 -2.78125 0.828125q-2.078125 0 -3.4375 -1.421875q-1.34375 -1.421875 -1.34375 -3.90625q0 -2.609375 1.359375 -4.0625q1.359375 -1.453125 3.5625 -1.453125q1.921875 0 3.125 1.140625q0.71875 0.671875 1.0625 1.9375l-2.09375 0.5q-0.1875 -0.828125 -0.78125 -1.296875q-0.578125 -0.46875 -1.421875 -0.46875q-1.171875 0 -1.90625 0.84375q-0.71875 0.828125 -0.71875 2.703125q0 1.984375 0.71875 2.84375q0.71875 0.84375 1.859375 0.84375q0.84375 0 1.453125 -0.53125q0.609375 -0.546875 0.875 -1.703125zm3.3967896 -0.046875q0 -1.0 0.484375 -1.9375q0.5 -0.9375 1.40625 -1.421875q0.90625 -0.5 2.015625 -0.5q1.71875 0 2.828064 1.125q1.109375 1.109375 1.109375 2.8125q0 1.734375 -1.125 2.875q-1.109314 1.125 -2.796814 1.125q-1.046875 0 -2.0 -0.46875q-0.9375 -0.46875 -1.4375 -1.375q-0.484375 -0.921875 -0.484375 -2.234375zm2.046875 0.109375q0 1.125 0.53125 1.734375q0.546875 0.59375 1.34375 0.59375q0.78125 0 1.3125 -0.59375q0.53125 -0.609375 0.53125 -1.75q0 -1.125 -0.53125 -1.71875q-0.53125 -0.609375 -1.3125 -0.609375q-0.796875 0 -1.34375 0.609375q-0.53125 0.59375 -0.53125 1.734375zm6.9057007 -0.109375q0 -1.0 0.484375 -1.9375q0.5 -0.9375 1.40625 -1.421875q0.90625 -0.5 2.015625 -0.5q1.71875 0 2.828125 1.125q1.109375 1.109375 1.109375 2.8125q0 1.734375 -1.125 2.875q-1.109375 1.125 -2.796875 1.125q-1.046875 0 -2.0 -0.46875q-0.9375 -0.46875 -1.4375 -1.375q-0.484375 -0.921875 -0.484375 -2.234375zm2.046875 0.109375q0 1.125 0.53125 1.734375q0.546875 0.59375 1.34375 0.59375q0.78125 0 1.3125 -0.59375q0.53125 -0.609375 0.53125 -1.75q0 -1.125 -0.53125 -1.71875q-0.53125 -0.609375 -1.3125 -0.609375q-0.796875 0 -1.34375 0.609375q-0.53125 0.59375 -0.53125 1.734375zm9.296387 3.796875l-2.015625 0l0 -7.59375l1.859375 0l0 1.078125q0.484375 -0.765625 0.859375 -1.0q0.390625 -0.25 0.875 -0.25q0.6875 0 1.328125 0.375l-0.625 1.75q-0.5 -0.328125 -0.9375 -0.328125q-0.421875 0 -0.71875 0.234375q-0.296875 0.234375 -0.46875 0.84375q-0.15625 0.609375 -0.15625 2.546875l0 2.34375zm10.734863 0l-1.859375 0l0 -1.109375q-0.46875 0.640625 -1.109375 0.96875q-0.625 0.3125 -1.265625 0.3125q-1.3125 0 -2.25 -1.046875q-0.9375 -1.0625 -0.9375 -2.953125q0 -1.9375 0.90625 -2.9375q0.921875 -1.0 2.3125 -1.0q1.265625 0 2.203125 1.046875l0 -3.765625l2.0 0l0 10.484375zm-5.359375 -3.96875q0 1.21875 0.328125 1.765625q0.5 0.78125 1.359375 0.78125q0.703125 0 1.1875 -0.578125q0.484375 -0.59375 0.484375 -1.765625q0 -1.3125 -0.46875 -1.890625q-0.46875 -0.578125 -1.203125 -0.578125q-0.71875 0 -1.203125 0.578125q-0.484375 0.5625 -0.484375 1.6875zm6.6401367 1.796875l2.015625 -0.296875q0.125 0.578125 0.515625 0.890625q0.40625 0.296875 1.109375 0.296875q0.78125 0 1.171875 -0.28125q0.265625 -0.203125 0.265625 -0.546875q0 -0.21875 -0.140625 -0.375q-0.15625 -0.140625 -0.671875 -0.265625q-2.4375 -0.53125 -3.078125 -0.984375q-0.90625 -0.609375 -0.90625 -1.703125q0 -0.984375 0.78125 -1.65625q0.78125 -0.671875 2.421875 -0.671875q1.546875 0 2.3125 0.515625q0.765625 0.5 1.046875 1.484375l-1.90625 0.359375q-0.109375 -0.453125 -0.453125 -0.6875q-0.34375 -0.234375 -0.96875 -0.234375q-0.796875 0 -1.140625 0.21875q-0.234375 0.15625 -0.234375 0.40625q0 0.21875 0.203125 0.375q0.28125 0.203125 1.875 0.5625q1.609375 0.359375 2.25 0.890625q0.625 0.546875 0.625 1.5q0 1.046875 -0.875 1.796875q-0.859375 0.75 -2.578125 0.75q-1.546875 0 -2.453125 -0.625q-0.90625 -0.640625 -1.1875 -1.71875z" fill-rule="nonzero"/><path fill="#000000" fill-opacity="0.0" d="m567.4482 305.85428l142.77167 170.04724l-28.472473 23.905518l-142.7716 -170.04724z" fill-rule="evenodd"/><path fill="#000000" d="m569.9567 339.8757q-0.6461792 0.5425415 -1.5578613 0.69595337q-0.89971924 0.14337158 -1.8515015 -0.261261q-0.9517822 -0.40460205 -1.6048584 -1.1824341q-0.6430054 -0.7658386 -0.8887329 -1.7632446q-0.22375488 -0.9954529 0.07507324 -1.8788147q0.29882812 -0.8833618 0.9569702 -1.4359741q0.670166 -0.5626221 1.6278076 -0.7341919q0.9796753 -0.16967773 1.9333496 0.21292114q0.9536743 0.38259888 1.5966797 1.148468q0.6430054 0.7658386 0.8529053 1.7933655q0.23181152 1.0294495 -0.11291504 1.9309998q-0.3447876 0.9015198 -1.0269165 1.4742126zm-0.944397 -1.1248474q0.5385132 -0.45211792 0.6716919 -1.2168274q0.15820312 -1.0509033 -0.56518555 -1.9124756q-0.6430054 -0.76586914 -1.5656738 -0.86849976q-0.90063477 -0.10070801 -1.546814 0.4418335q-0.5265503 0.44207764 -0.5492554 1.3384094q-0.022705078 0.8963623 0.6102905 1.650238q0.6329346 0.75390625 1.5197144 0.8866577q0.88671875 0.13278198 1.4252319 -0.31933594zm5.276306 1.035553l-0.32312012 0.27127075q0.5062866 0.044158936 0.78289795 0.1791687q0.29858398 0.13693237 0.54974365 0.4360962q0.20098877 0.23934937 0.28222656 0.5791321q0.091308594 0.35177612 0.030944824 0.7901306q0.49243164 0.07620239 0.85131836 0.28494263q0.37078857 0.19869995 0.63201904 0.50982666q0.52246094 0.6222534 0.51898193 1.2984619q0.0012207031 0.8762512 -0.7167969 1.479065l-2.5129395 2.1098938q0.29138184 0.3470459 0.26446533 0.6552124q-0.0048217773 0.31011963 -0.24414062 0.5110779q-0.25134277 0.21096802 -0.5576172 0.16207886q-0.2962036 -0.036895752 -0.6378174 -0.4437561l-0.89416504 -1.065033l3.5420532 -2.973938q0.26330566 -0.22103882 0.2786255 -0.39715576q0.025390625 -0.16412354 -0.13531494 -0.35559082q-0.1607666 -0.19146729 -0.387146 -0.2666626q-0.3024292 -0.09289551 -0.93652344 -0.07055664l-2.2616577 1.8988953q0.3013916 0.3590088 0.27453613 0.6671753q-0.014892578 0.29815674 -0.25421143 0.49908447q-0.25128174 0.21099854 -0.5475464 0.17407227q-0.2962036 -0.036895752 -0.6378174 -0.44378662l-0.89416504 -1.0650024l3.5420532 -2.973938q0.25128174 -0.21099854 0.2666626 -0.38708496q0.02734375 -0.18615723 -0.14349365 -0.3895874q-0.1607666 -0.19146729 -0.4411621 -0.2824707q-0.2803955 -0.09100342 -0.8824463 -0.054748535l-2.2616577 1.8988953q0.3013916 0.35897827 0.27453613 0.6671753q-0.0048828125 0.31011963 -0.24420166 0.51104736q-0.25128174 0.21099854 -0.55755615 0.16210938q-0.29626465 -0.03692627 -0.6378174 -0.44378662l-0.8540039 -1.0171509q-0.34161377 -0.40686035 -0.3267212 -0.7049866q0.0048828125 -0.31011963 0.25616455 -0.52111816q0.25128174 -0.21096802 0.55755615 -0.16210938q0.2962036 0.03692627 0.59765625 0.39593506l2.7283325 -2.290741q-0.3013916 -0.3590088 -0.28649902 -0.657135q0.016845703 -0.3201599 0.25616455 -0.52108765q0.25128174 -0.21099854 0.55755615 -0.16210938q0.2962036 0.036895752 0.6378174 0.44378662l0.8942261 1.0650024zm1.5909424 10.740021l-1.8428345 1.5472412l0.5626221 0.670105q0.34161377 0.40686035 0.3267212 0.7050171q-0.0048828125 0.31011963 -0.25616455 0.52108765q-0.25128174 0.21099854 -0.55755615 0.16210938q-0.2962036 -0.03692627 -0.6378174 -0.44378662l-1.6678467 -1.9864197q-0.34155273 -0.40686035 -0.33673096 -0.71698q0.014892578 -0.29812622 0.26623535 -0.50912476q0.25128174 -0.21099854 0.55755615 -0.16210938q0.3062744 0.04888916 0.6378174 0.44378662l0.1607666 0.19146729l5.0737915 -4.2599792l-0.1607666 -0.19146729q-0.34161377 -0.40686035 -0.33673096 -0.71694946q0.014892578 -0.29815674 0.26617432 -0.5091553q0.25128174 -0.21096802 0.5475464 -0.17404175q0.3062744 0.048858643 0.64782715 0.455719l1.1052246 1.3163147l-0.38293457 0.3215332q0.5947876 0.17385864 1.078064 0.48214722q0.48327637 0.3083191 0.8550415 0.7510681q0.97454834 1.1607666 0.86987305 2.61557q-0.09460449 1.4667969 -1.1117554 2.3208008q-1.112854 0.9343567 -2.6346436 0.5798645q-1.2714844 -0.29940796 -2.1154175 -1.3045654q-0.36169434 -0.43081665 -0.59368896 -0.95010376q-0.22003174 -0.5293579 -0.32037354 -1.1591492zm4.7197266 1.7091064q0.23931885 -0.20095825 0.43756104 -0.69384766q0.22021484 -0.49093628 0.13806152 -1.0747986q-0.08215332 -0.5838928 -0.52423096 -1.1104126q-0.7033081 -0.8376465 -1.7374878 -0.80581665q-0.72406006 0.03668213 -1.1189575 0.3682251q-0.44281006 0.37173462 -0.4716797 1.2120972q-0.016967773 0.83029175 0.57580566 1.5363159q0.60284424 0.71798706 1.4135132 0.83303833q0.8206787 0.12701416 1.2874146 -0.26480103zm0.71661377 12.881836l-5.1742554 -6.1627197q-0.34161377 -0.40686035 -0.3267212 -0.7050171q0.0048828125 -0.31011963 0.25616455 -0.52108765q0.25128174 -0.21099854 0.55755615 -0.16210938q0.29626465 0.03692627 0.6378174 0.44378662l5.1742554 6.1627197q0.34161377 0.40686035 0.3267212 0.7050171q-0.0048828125 0.31011963 -0.25616455 0.52108765q-0.25128174 0.21099854 -0.55755615 0.16210938q-0.29626465 -0.03692627 -0.6378174 -0.44378662zm12.105591 -1.8624573l0.335083 -0.28134155l1.1051636 1.3163147q0.34161377 0.40686035 0.32666016 0.7050171q-0.014892578 0.29815674 -0.26617432 0.50912476q-0.25128174 0.21099854 -0.5475464 0.17407227q-0.2962036 -0.03692627 -0.6378174 -0.44378662l-0.1607666 -0.19143677l-4.0925293 3.4360962q-0.58636475 0.49230957 -1.2401123 0.61273193q-0.65374756 0.12045288 -1.3968506 -0.13287354q-0.75512695 -0.24328613 -1.2976685 -0.88949585l-1.0650024 -1.2684326q-0.34161377 -0.40686035 -0.33673096 -0.71698q0.014892578 -0.29812622 0.26617432 -0.50912476q0.25128174 -0.21099854 0.5475464 -0.17407227q0.3062744 0.04888916 0.64782715 0.4557495l1.0348511 1.232544q0.43206787 0.5145569 0.9603882 0.5606384q0.5163574 0.05609131 0.93518066 -0.29553223l0.5504761 -0.46218872q-0.5508423 -0.17001343 -1.0020142 -0.46444702q-0.4411621 -0.2824402 -0.7827759 -0.68930054q-0.9645386 -1.1487732 -0.8517456 -2.5696106q0.12286377 -1.4088745 1.2357178 -2.3432617q1.1368408 -0.9544678 2.5457153 -0.8316345q1.4188843 0.13482666 2.3834229 1.2835999q0.36169434 0.43078613 0.5515747 0.92422485q0.20184326 0.48339844 0.25195312 1.0534058zm-2.1640015 1.7965088q0.6222534 -0.52246094 0.6951904 -1.3589783q0.07293701 -0.83651733 -0.4696045 -1.4826965q-0.53253174 -0.6342163 -1.3790894 -0.7191467q-0.8364868 -0.07293701 -1.4587402 0.44952393q-0.6222534 0.52246094 -0.6951904 1.3589783q-0.062927246 0.8484802 0.4696045 1.4826965q0.5425415 0.6461792 1.3790283 0.7191162q0.83654785 0.07293701 1.4588013 -0.4494934zm6.4172363 8.809631l-3.868103 -4.607086q-0.28009033 0.5411682 -0.18359375 1.2150269q0.10852051 0.66378784 0.7515259 1.429657q0.52246094 0.6222534 1.65979 1.4422913q0.4593506 0.32839966 0.6000366 0.49594116q0.19085693 0.22735596 0.16589355 0.5135498q-0.024902344 0.28616333 -0.26428223 0.48712158q-0.22735596 0.19088745 -0.5115967 0.1439209q-0.39434814 -0.05657959 -1.2991333 -0.74542236q-0.8828125 -0.6869507 -1.5458984 -1.4767456q-1.135315 -1.3522339 -1.0646362 -2.7989197q0.0927124 -1.4447632 1.2055664 -2.3791199q1.1846924 -0.99468994 2.6600952 -0.7440491q1.4753418 0.25064087 2.4398193 1.3994141q0.5726929 0.6820984 0.8156128 1.457428q0.24298096 0.7753296 0.1987915 1.2816467q-0.07531738 0.73651123 -0.46264648 1.4901428q-0.26812744 0.53115845 -0.8185425 0.99331665l-0.47869873 0.401886zm0.079956055 -2.1889343q0.2677002 -0.65319824 0.15539551 -1.2729492q-0.11236572 -0.6197815 -0.5946045 -1.1941528q-0.48223877 -0.57440186 -1.0732422 -0.79229736q-0.5809326 -0.2059021 -1.2806396 -0.06729126l2.7930908 3.3266907zm4.911865 4.197815l-2.2496948 1.888855q-0.3590088 0.30142212 -0.3480835 0.5574646q0.011413574 0.37805176 0.50372314 0.9644165q0.7233887 0.8616028 1.6952515 1.2901306q0.38476562 0.16662598 0.5153198 0.3222046q0.18084717 0.21539307 0.14398193 0.5116272q-0.014953613 0.29812622 -0.25427246 0.49908447q-0.21539307 0.18084717 -0.5115967 0.1439209q-0.49438477 -0.05419922 -1.3728638 -0.663147q-0.878479 -0.60894775 -1.3406372 -1.1593933q-0.8741455 -1.0410767 -0.8734131 -1.9393616q0.012634277 -0.9082947 0.67077637 -1.460907l2.4770508 -2.0797424l-0.33154297 -0.39489746q-0.34155273 -0.40686035 -0.33673096 -0.71694946q0.014892578 -0.29815674 0.26623535 -0.5091553q0.25128174 -0.21096802 0.54748535 -0.17404175q0.3062744 0.048858643 0.6478882 0.455719l0.33154297 0.39489746l1.0171509 -0.8540039q0.39489746 -0.33154297 0.6930542 -0.3166504q0.3201294 0.016845703 0.5311279 0.26812744q0.20092773 0.23934937 0.15203857 0.5456238q-0.03692627 0.2962036 -0.43182373 0.6277771l-1.0171509 0.8539734l1.74823 2.0821838q0.34161377 0.40686035 0.32666016 0.7050171q-0.0048217773 0.3100891 -0.25610352 0.52108765q-0.25134277 0.21099854 -0.5576172 0.16210938q-0.2962036 -0.03692627 -0.6378174 -0.44378662l-1.748169 -2.0821838zm1.2709961 16.190796l-5.1742554 -6.1627197q-0.34161377 -0.40686035 -0.3267212 -0.7050171q0.0048828125 -0.31011963 0.25616455 -0.52108765q0.25128174 -0.21099854 0.55755615 -0.16210938q0.29626465 0.03692627 0.6378174 0.44378662l5.1742554 6.1627197q0.34161377 0.40686035 0.3267212 0.7050171q-0.0048828125 0.31011963 -0.25616455 0.52108765q-0.25128174 0.21099854 -0.55755615 0.16210938q-0.29626465 -0.03692627 -0.6378174 -0.44378662zm9.938904 -5.1234436l-0.32305908 0.27127075q0.5062866 0.044158936 0.78289795 0.1791687q0.29858398 0.13693237 0.54974365 0.4360962q0.20092773 0.23934937 0.28222656 0.5791321q0.091308594 0.35177612 0.030944824 0.7901306q0.4923706 0.07620239 0.8512573 0.28494263q0.3708496 0.19869995 0.6320801 0.50982666q0.52246094 0.6222534 0.5189209 1.2984619q0.0012817383 0.8762512 -0.71673584 1.479065l-2.5129395 2.1098938q0.2913208 0.3470459 0.26446533 0.6552124q-0.0048828125 0.31011963 -0.24420166 0.5110779q-0.25128174 0.21096802 -0.55755615 0.16207886q-0.2962036 -0.036895752 -0.6378174 -0.4437561l-0.89416504 -1.065033l3.5420532 -2.973938q0.26324463 -0.22103882 0.2786255 -0.39712524q0.025390625 -0.16415405 -0.13537598 -0.35562134q-0.16070557 -0.19146729 -0.38708496 -0.2666626q-0.3024292 -0.09289551 -0.93652344 -0.07055664l-2.2616577 1.8988953q0.3013916 0.3590088 0.27453613 0.6671753q-0.014892578 0.29815674 -0.25421143 0.49908447q-0.25134277 0.21099854 -0.5475464 0.17407227q-0.2962036 -0.036895752 -0.6378174 -0.4437561l-0.8942261 -1.065033l3.5421143 -2.973938q0.25128174 -0.21099854 0.2666626 -0.38708496q0.027282715 -0.18615723 -0.14349365 -0.3895874q-0.1607666 -0.19146729 -0.4411621 -0.2824707q-0.28045654 -0.0909729 -0.8824463 -0.054748535l-2.2617188 1.8988953q0.30145264 0.35897827 0.27453613 0.6671753q-0.0048217773 0.31011963 -0.24414062 0.51104736q-0.25134277 0.21099854 -0.55755615 0.16210938q-0.29626465 -0.03692627 -0.6378784 -0.44378662l-0.8540039 -1.0171509q-0.34155273 -0.40686035 -0.32666016 -0.7049866q0.0048828125 -0.31011963 0.25616455 -0.52111816q0.25128174 -0.21096802 0.55755615 -0.16207886q0.2962036 0.036895752 0.59765625 0.39590454l2.7283325 -2.290741q-0.3013916 -0.3590088 -0.28649902 -0.657135q0.016845703 -0.3201599 0.25616455 -0.52108765q0.25128174 -0.21099854 0.55755615 -0.16210938q0.2962036 0.03692627 0.6378174 0.44378662l0.89416504 1.0650024zm2.9882202 13.667725l0.26324463 -0.22103882q-0.5790405 -0.22793579 -1.1187134 -0.6520691q-0.5516968 -0.41409302 -0.89331055 -0.82095337q-0.7635498 -0.90945435 -0.7571411 -1.8737488q0.018432617 -0.97436523 0.5928345 -1.4566345q0.70599365 -0.59277344 1.9071655 -0.37713623q1.2130737 0.20559692 2.2780762 1.4740295q0.43206787 0.5145569 0.8869629 1.275116l0.27526855 -0.2310791q0.25128174 -0.21099854 0.22601318 -0.55700684q-0.02532959 -0.3460083 -0.5377197 -0.9562988q-0.42193604 -0.502594 -1.2765503 -1.1316223q-0.322937 -0.2388916 -0.46362305 -0.4064026q-0.18084717 -0.21539307 -0.16595459 -0.5135498q0.03692627 -0.29623413 0.288208 -0.50720215q0.14361572 -0.12057495 0.28961182 -0.14111328q0.15789795 -0.03060913 0.2980957 0.014892578q0.15222168 0.035461426 0.49719238 0.27624512q0.47131348 0.31835938 0.89282227 0.6989136q0.4335327 0.37051392 0.7349243 0.7295227q0.8740845 1.0410767 0.9016113 1.9972534q0.049560547 0.95809937 -0.7402344 1.6212158l-2.3095093 1.9390869l0.16070557 0.19146729q0.34161377 0.40686035 0.3267212 0.7050171q-0.0048828125 0.3100891 -0.25616455 0.52108765q-0.25128174 0.21099854 -0.55755615 0.16210938q-0.2962036 -0.03692627 -0.6378174 -0.44378662l-1.1051636 -1.3163147zm2.010376 -1.6878967q-0.43103027 -0.78067017 -0.91326904 -1.3550415q-0.5726929 -0.6820984 -1.3197021 -0.89141846q-0.47662354 -0.13027954 -0.6920166 0.050567627q-0.15557861 0.13061523 -0.1427002 0.36465454q0.051574707 0.42593384 0.4534912 0.90457153q0.34161377 0.40686035 0.9291992 0.7908325q0.59954834 0.37390137 1.2062988 0.5376892l0.47869873 -0.40185547zm6.0891113 6.086029l-0.033203125 2.9249878q0.24926758 0.321167 0.20227051 0.60543823q-0.024963379 0.28616333 -0.25231934 0.4770813q-0.25128174 0.21096802 -0.54748535 0.17407227q-0.29626465 -0.03692627 -0.6378784 -0.44378662l-1.0750122 -1.280426q-0.34161377 -0.40686035 -0.33673096 -0.71698q0.014892578 -0.29812622 0.2781372 -0.51916504q0.19146729 -0.1607666 0.43554688 -0.16165161q0.26611328 0.0010070801 0.5067749 0.16616821l0.014709473 -1.4404602l-1.4414062 -0.25875854q0.14923096 0.32354736 0.096069336 0.55178833q-0.03112793 0.23019409 -0.2345581 0.40100098q-0.26330566 0.22103882 -0.5695801 0.17214966q-0.2962036 -0.03692627 -0.6378174 -0.44378662l-1.0650024 -1.2684631q-0.33154297 -0.39489746 -0.32666016 -0.7049866q0.014892578 -0.29815674 0.26617432 -0.50912476q0.22735596 -0.19091797 0.503479 -0.17791748q0.29815674 0.014892578 0.5713501 0.315979l2.8684082 0.42755127l0.020690918 -2.526825q-0.21716309 -0.3072815 -0.1921997 -0.5934448q0.034973145 -0.27423096 0.2623291 -0.4651184q0.25128174 -0.21099854 0.5475464 -0.17407227q0.2962036 0.03692627 0.6378174 0.44378662l0.8841553 1.0530396q0.34155273 0.40686035 0.32666016 0.7050171q-0.0048217773 0.3100891 -0.24420166 0.51104736q-0.32305908 0.27127075 -0.7877197 0.13095093l-0.0017089844 1.1643372l1.1489868 0.17782593q-0.047729492 -0.4699707 0.23944092 -0.7110901q0.26330566 -0.22103882 0.5595093 -0.18411255q0.3062744 0.048858643 0.6478882 0.455719l0.8740845 1.0411072q0.33154297 0.39489746 0.3166504 0.6930237q-0.0048828125 0.31011963 -0.25616455 0.52111816q-0.22735596 0.19088745 -0.5135498 0.16592407q-0.27612305 -0.012969971 -0.5512085 -0.29205322l-2.5042725 -0.40689087zm1.5950317 14.000946l-5.1742554 -6.1627197q-0.34161377 -0.40686035 -0.3267212 -0.7050171q0.0048828125 -0.31011963 0.25616455 -0.52108765q0.25128174 -0.21099854 0.55755615 -0.16210938q0.29626465 0.03692627 0.6378174 0.44378662l5.1742554 6.1627502q0.34161377 0.40686035 0.3267212 0.7049866q-0.0048828125 0.31011963 -0.25616455 0.52108765q-0.25128174 0.21099854 -0.55755615 0.16210938q-0.29626465 -0.03692627 -0.6378174 -0.44378662zm10.039795 -2.7191162l-2.2496948 1.888855q-0.35894775 0.30142212 -0.34802246 0.5574646q0.011413574 0.37805176 0.50372314 0.9644165q0.7233887 0.8616028 1.6952515 1.2901306q0.3847046 0.16662598 0.5153198 0.3222046q0.18084717 0.21539307 0.1439209 0.5116272q-0.014892578 0.29812622 -0.25421143 0.49908447q-0.21539307 0.18084717 -0.5116577 0.1439209q-0.49432373 -0.05419922 -1.3728027 -0.663147q-0.87854004 -0.60891724 -1.3406982 -1.1593933q-0.8740845 -1.0410767 -0.8734131 -1.9393616q0.0126953125 -0.9082947 0.6708374 -1.460907l2.4770508 -2.0797424l-0.33154297 -0.39489746q-0.34161377 -0.40686035 -0.33673096 -0.71694946q0.014892578 -0.29815674 0.26617432 -0.50912476q0.25128174 -0.21099854 0.5475464 -0.17407227q0.3062744 0.04888916 0.64782715 0.4557495l0.331604 0.39486694l1.0171509 -0.8540039q0.39483643 -0.33154297 0.69299316 -0.31661987q0.32019043 0.016815186 0.5311279 0.26809692q0.20098877 0.23934937 0.15209961 0.5456238q-0.03692627 0.2962036 -0.43182373 0.6277771l-1.0171509 0.8540039l1.748169 2.0821533q0.34161377 0.40686035 0.3267212 0.7050171q-0.0048828125 0.3100891 -0.25616455 0.52108765q-0.25128174 0.21099854 -0.55755615 0.16210938q-0.2962036 -0.03692627 -0.6378174 -0.44378662l-1.74823 -2.0821838zm8.17688 3.129486l-2.3933105 2.00943q0.494812 0.1762085 0.8919678 0.45483398q0.40911865 0.2685852 0.72058105 0.63952637q0.48223877 0.57440186 0.6605835 1.1999207q0.19030762 0.6154785 0.0107421875 1.2763367q-0.16766357 0.6508179 -0.8138428 1.1933594l-2.1061401 1.76828q0.36169434 0.43081665 0.38848877 0.63275146q0.053466797 0.40393066 -0.2576294 0.66516113q-0.25134277 0.21099854 -0.55755615 0.16210938q-0.29626465 -0.03692627 -0.6378784 -0.44378662l-1.0750122 -1.280426q-0.33154297 -0.39489746 -0.3267212 -0.7049866q0.014953613 -0.29815674 0.26623535 -0.50912476q0.3110962 -0.26123047 0.69970703 -0.13864136q0.1942749 0.061309814 0.55596924 0.49209595l2.0343018 -1.7080078q0.43078613 -0.36169434 0.43945312 -0.7158203q0.016418457 -0.4421997 -0.4055786 -0.9447937q-0.32147217 -0.38290405 -0.7062378 -0.54956055q-0.3847046 -0.16662598 -1.2652588 -0.2434082l-2.106079 1.7683105q0.36169434 0.43078613 0.37835693 0.6207886q0.06359863 0.41586304 -0.2475586 0.6770935q-0.25128174 0.21099854 -0.55755615 0.16210938q-0.2962036 -0.03692627 -0.6378174 -0.44378662l-1.0750732 -1.2803955q-0.34155273 -0.40686035 -0.32666016 -0.7050171q0.014892578 -0.29812622 0.26617432 -0.50912476q0.31115723 -0.26123047 0.69970703 -0.13861084q0.1942749 0.061279297 0.55596924 0.49209595l4.8583984 -4.079132l-0.1607666 -0.19146729q-0.34155273 -0.40686035 -0.33673096 -0.71694946q0.014892578 -0.29815674 0.26623535 -0.5091553q0.25128174 -0.21096802 0.54748535 -0.17407227q0.3062744 0.04888916 0.6478882 0.4557495l1.1051636 1.3163147zm4.299011 9.445648l-0.7060547 0.59277344q1.1073608 0.27401733 1.6165161 0.54019165q0.50909424 0.26620483 0.8105469 0.6252136q0.4621582 0.55044556 0.4873047 1.4066162q0.016113281 0.578125 -0.25909424 0.8092041q-0.25128174 0.21096802 -0.5595093 0.18411255q-0.2962036 -0.03692627 -0.48712158 -0.26428223q-0.18084717 -0.21539307 -0.16827393 -0.6135559q0.012512207 -0.39816284 -0.1381836 -0.57766724q-0.20092773 -0.23934937 -0.8919678 -0.4548645q-0.6790161 -0.22555542 -1.8701172 -0.42922974l-1.6872559 1.4166565l1.3463135 1.6035156q0.34161377 0.40686035 0.32666016 0.7049866q-0.014892578 0.29815674 -0.26617432 0.50912476q-0.25128174 0.21099854 -0.5475464 0.17407227q-0.2962036 -0.036895752 -0.6378174 -0.4437561l-2.8533325 -3.3984985q-0.34161377 -0.40686035 -0.33673096 -0.71698q0.014892578 -0.29812622 0.26617432 -0.50912476q0.25128174 -0.21099854 0.5475464 -0.17407227q0.30621338 0.04888916 0.64782715 0.4557495l0.5626221 0.6701355l2.7283936 -2.290741l-0.34161377 -0.40686035q-0.34161377 -0.40686035 -0.33673096 -0.71698q0.014892578 -0.29812622 0.26617432 -0.50912476q0.25134277 -0.21099854 0.5475464 -0.17407227q0.3062744 0.04888916 0.6478882 0.4557495l1.2860107 1.5317078zm5.1539917 12.3593445l-3.868103 -4.607086q-0.28009033 0.5411682 -0.18359375 1.2150269q0.10845947 0.66378784 0.75146484 1.429657q0.52246094 0.6222534 1.6598511 1.4422913q0.4593506 0.32839966 0.5999756 0.49594116q0.19091797 0.22735596 0.16595459 0.5135498q-0.024963379 0.28616333 -0.26428223 0.48712158q-0.22735596 0.19088745 -0.5115967 0.1439209q-0.39434814 -0.05657959 -1.2991333 -0.74542236q-0.8828125 -0.6869507 -1.5458984 -1.4767456q-1.135376 -1.3522034 -1.0646362 -2.7988892q0.09265137 -1.4447937 1.2055664 -2.3791504q1.1846924 -0.9946594 2.6600342 -0.7440491q1.4753418 0.25064087 2.4398804 1.3994446q0.5726929 0.6820679 0.8156128 1.4573975q0.24291992 0.7753601 0.1987915 1.2816467q-0.07531738 0.73651123 -0.46264648 1.4901428q-0.26812744 0.53115845 -0.8186035 0.99331665l-0.4786377 0.401886zm0.079956055 -2.1889343q0.26763916 -0.6531677 0.15533447 -1.2729492q-0.11230469 -0.6197815 -0.59454346 -1.1941528q-0.4822998 -0.57440186 -1.0732422 -0.79229736q-0.5809326 -0.2059021 -1.2806396 -0.06729126l2.7930908 3.3266907zm2.1436768 8.725372l0.26330566 -0.22103882q-0.5790405 -0.22793579 -1.1187744 -0.6520691q-0.55163574 -0.41409302 -0.8932495 -0.82095337q-0.76361084 -0.90945435 -0.7571411 -1.8737488q0.018432617 -0.97436523 0.59277344 -1.4566345q0.7060547 -0.59277344 1.9072266 -0.37713623q1.2130737 0.20559692 2.2780762 1.4740295q0.43200684 0.5145874 0.8869629 1.275116l0.27520752 -0.2310791q0.25134277 -0.21099854 0.22601318 -0.55700684q-0.025268555 -0.3460083 -0.5376587 -0.9562988q-0.42199707 -0.502594 -1.2765503 -1.1316223q-0.32299805 -0.2388916 -0.46362305 -0.4064026q-0.18084717 -0.21539307 -0.16595459 -0.5135498q0.03692627 -0.2962036 0.288208 -0.50720215q0.14361572 -0.12057495 0.28955078 -0.14111328q0.15795898 -0.030578613 0.29815674 0.014892578q0.15216064 0.035461426 0.49719238 0.27627563q0.47131348 0.31832886 0.89282227 0.6989136q0.43347168 0.3704834 0.7349243 0.7294922q0.8740845 1.0410767 0.9016113 1.9972534q0.049560547 0.95809937 -0.7402344 1.6212158l-2.3095703 1.9390869l0.1607666 0.19146729q0.34161377 0.40686035 0.3267212 0.7050171q-0.0048828125 0.3100891 -0.25616455 0.52108765q-0.25128174 0.21099854 -0.55755615 0.16210938q-0.29626465 -0.03692627 -0.6378174 -0.44378662l-1.1052246 -1.3163147zm2.010376 -1.6878967q-0.43096924 -0.78067017 -0.91326904 -1.3550415q-0.57263184 -0.6820984 -1.3196411 -0.89141846q-0.47662354 -0.13027954 -0.6920166 0.050567627q-0.15557861 0.13061523 -0.1427002 0.36465454q0.051574707 0.42593384 0.4534912 0.90460205q0.34155273 0.40686035 0.9291382 0.790802q0.59954834 0.37390137 1.2063599 0.5376892l0.4786377 -0.40185547zm12.069336 4.0233765l-5.9832764 5.0235596l0.1607666 0.19143677q0.33154297 0.39489746 0.3267212 0.7050171q-0.0048828125 0.31011963 -0.25616455 0.52108765q-0.25128174 0.21099854 -0.55755615 0.16210938q-0.29626465 -0.03692627 -0.6378174 -0.44378662l-1.1052246 -1.3163147l0.27526855 -0.2310791q-0.54888916 -0.1920166 -1.0082397 -0.52041626q-0.47131348 -0.31835938 -0.8530884 -0.7731018q-1.0549316 -1.2564697 -0.97802734 -2.6471863q0.07684326 -1.390686 1.1658325 -2.3049622q1.1487427 -0.96450806 2.633728 -0.8239441q1.4849243 0.14056396 2.4695435 1.3132629q0.36169434 0.43081665 0.5817261 0.96014404q0.2300415 0.5413208 0.29644775 1.1792603l1.4000854 -1.1755066l-0.1607666 -0.19146729q-0.34161377 -0.40686035 -0.33673096 -0.71698q0.014892578 -0.29812622 0.26617432 -0.50912476q0.25128174 -0.21099854 0.5475464 -0.17407227q0.3062744 0.04888916 0.6478882 0.4557495l1.1051636 1.3163147zm-5.7070923 2.8739014q0.69403076 -0.58273315 0.7608032 -1.4752502q0.07672119 -0.8805542 -0.526062 -1.5985413q-0.5827637 -0.6940613 -1.4733276 -0.7827759q-0.89056396 -0.08874512 -1.5726929 0.48391724q-0.6222534 0.52246094 -0.64538574 1.2967834q-0.02319336 0.774292 0.6399536 1.5640869q0.67315674 0.8017578 1.4397583 0.91296387q0.7666626 0.111206055 1.3769531 -0.40118408zm6.770752 5.391327q-0.0635376 -0.41589355 -0.23095703 -0.7854004q-0.16741943 -0.36947632 -0.44873047 -0.7045288q-0.5425415 -0.6462097 -1.0794067 -0.8482666q-0.23449707 -0.109191895 -0.3421631 -0.01876831q-0.13165283 0.11053467 -0.050354004 0.45031738q0.056884766 0.23788452 0.48547363 0.91848755q0.7888794 1.2554626 0.9949951 1.816864q0.27886963 0.74520874 0.13323975 1.3979187q-0.13366699 0.6427002 -0.57647705 1.0144348q-0.59832764 0.50234985 -1.4472046 0.31744385q-1.2293701 -0.27355957 -2.2441406 -1.4821777q-0.41192627 -0.4906311 -0.6798096 -0.97979736q-0.25787354 -0.47717285 -0.38171387 -0.96487427q-0.14208984 -0.023468018 -0.2703247 -0.07901001q-0.11627197 -0.065582275 -0.19665527 -0.16131592q-0.22106934 -0.26327515 -0.18414307 -0.5595093q0.04888916 -0.3062744 0.4557495 -0.64785767l0.38293457 -0.3215027q0.40686035 -0.34161377 0.7050171 -0.32669067q0.31011963 0.004852295 0.5210571 0.25613403q0.1708374 0.20343018 0.16168213 0.43554688q0.012878418 0.23400879 -0.1920166 0.54885864q-0.0043945312 0.43215942 0.17730713 0.89160156q0.20379639 0.46139526 0.5956421 0.9281006q0.65301514 0.7778015 1.2440186 0.995697q0.2904663 0.10296631 0.4220581 -0.0075683594q0.21539307 -0.18084717 0.11791992 -0.5885925q-0.09753418 -0.40777588 -0.76538086 -1.397583q-0.99176025 -1.4727783 -0.9767456 -2.2810974q0.02508545 -0.7963257 0.6114502 -1.2886353q0.59832764 -0.50234985 1.4252319 -0.31933594q1.1331787 0.23190308 2.067566 1.3447876q0.33154297 0.39489746 0.5611572 0.81414795q0.22961426 0.419281 0.3453369 0.87298584q0.16223145 0.047424316 0.26843262 0.1010437q0.1282959 0.055541992 0.1885376 0.12734985q0.20092773 0.23931885 0.14202881 0.5336304q-0.03692627 0.29623413 -0.44378662 0.6378174l-0.27520752 0.2310791q-0.3590088 0.30142212 -0.5609741 0.32818604q-0.41400146 0.041534424 -0.66516113 -0.2576294q-0.17077637 -0.20343018 -0.16973877 -0.46951294q0.011047363 -0.25411987 0.17425537 -0.47277832z" fill-rule="nonzero"/><path fill="#000000" d="m674.4792 464.19638q0.8735962 -0.73342896 2.012207 -1.1997681q0.83898926 -0.33718872 2.022522 -0.555603q0.857605 -0.16921997 1.119873 -0.124176025q0.26226807 0.045043945 0.42297363 0.23651123q0.18084717 0.21539307 0.14587402 0.4895935q-0.013000488 0.27615356 -0.22839355 0.45700073q-0.14361572 0.12054443 -0.44750977 0.1716919q-1.3256226 0.19494629 -2.3144531 0.5967102q-0.9667969 0.40368652 -1.7685547 1.0768433q-0.7897949 0.66308594 -1.3666992 1.555481q-0.5548706 0.8943176 -0.9882202 2.1763q-0.09100342 0.2803955 -0.24658203 0.41101074q-0.20343018 0.17080688 -0.47766113 0.13580322q-0.27612305 -0.012969971 -0.4569702 -0.22836304q-0.1607666 -0.19146729 -0.15161133 -0.42358398q-0.0032348633 -0.3440857 0.32574463 -1.1915588q0.49365234 -1.2101746 0.9173584 -1.8719177q0.64245605 -1.008667 1.4801025 -1.7119751zm5.816101 6.9272156q-0.86157227 0.7233887 -2.000183 1.1897278q-0.8390503 0.33718872 -2.0125122 0.56759644q-0.857666 0.16918945 -1.119873 0.12414551q-0.26226807 -0.045043945 -0.42297363 -0.23651123q-0.1809082 -0.21539307 -0.15594482 -0.5015564q0.023071289 -0.26416016 0.22650146 -0.43496704q0.15551758 -0.13061523 0.44750977 -0.1716919q1.3375854 -0.20501709 2.3043823 -0.6086731q0.98883057 -0.40176392 1.7786255 -1.0648804q0.8017578 -0.67315674 1.3566284 -1.5674744q0.57684326 -0.892395 0.998291 -2.1643066q0.10296631 -0.2904663 0.24658203 -0.41104126q0.21539307 -0.18084717 0.47955322 -0.1578064q0.28619385 0.024932861 0.46704102 0.24035645q0.16070557 0.19146729 0.15161133 0.42355347q0.0032348633 0.3440857 -0.3477173 1.1896362q-0.4716797 1.2120972 -0.90545654 1.8618774q-0.65441895 1.0187073 -1.4920654 1.7220154z" fill-rule="nonzero"/><path fill="#000000" fill-opacity="0.0" d="m111.19463 133.37534l233.85825 0l0 229.76376l-233.85825 0z" fill-rule="evenodd"/><path stroke="#000000" stroke-width="1.0" stroke-linejoin="round" stroke-linecap="butt" d="m111.19463 133.37534l233.85825 0l0 229.76376l-233.85825 0z" fill-rule="evenodd"/><path fill="#000000" fill-opacity="0.0" d="m397.97113 175.19533l0 143.30708l-37.165344 0l0 -143.30708z" fill-rule="evenodd"/><path fill="#000000" d="m374.89114 210.02588l0 -2.015625l3.875 0q1.234375 0 1.59375 -0.125q0.359375 -0.125 0.5625 -0.421875q0.203125 -0.296875 0.203125 -0.703125q0 -0.515625 -0.296875 -0.9375q-0.28125 -0.40625 -0.75 -0.5625q-0.46875 -0.15625 -1.75 -0.15625l-3.4375 0l0 -2.015625l7.59375 0l0 1.875l-1.109375 0q1.28125 1.0 1.28125 2.5q0 0.671875 -0.234375 1.21875q-0.234375 0.546875 -0.609375 0.828125q-0.375 0.296875 -0.84375 0.40625q-0.46875 0.109375 -1.359375 0.109375l-4.71875 0zm0 7.0307465l1.140625 0q-0.609375 -0.40625 -0.96875 -1.09375q-0.34375 -0.671875 -0.34375 -1.421875q0 -0.765625 0.328125 -1.375q0.34375 -0.609375 0.953125 -0.875q0.609375 -0.265625 1.6875 -0.265625l4.796875 0l0 2.0l-3.484375 0q-1.609375 0 -1.96875 0.109375q-0.359375 0.109375 -0.578125 0.40625q-0.203125 0.296875 -0.203125 0.75q0 0.515625 0.28125 0.921875q0.28125 0.40625 0.703125 0.546875q0.421875 0.15625 2.046875 0.15625l3.203125 0l0 2.015625l-7.59375 0l0 -1.875zm7.59375 3.8119965l0 1.84375l-1.03125 0q1.203125 1.0 1.203125 2.375q0 0.734375 -0.296875 1.265625q-0.296875 0.53125 -0.90625 0.875q0.609375 0.5 0.90625 1.078125q0.296875 0.59375 0.296875 1.25q0 0.828125 -0.34375 1.40625q-0.328125 0.59375 -0.984375 0.875q-0.484375 0.203125 -1.578125 0.203125l-4.859375 0l0 -2.015625l4.34375 0q1.125 0 1.453125 -0.203125q0.4375 -0.28125 0.4375 -0.859375q0 -0.421875 -0.265625 -0.796875q-0.25 -0.359375 -0.75 -0.53125q-0.5 -0.171875 -1.5625 -0.171875l-3.65625 0l0 -2.0l4.171875 0q1.109375 0 1.421875 -0.109375q0.328125 -0.109375 0.484375 -0.34375q0.15625 -0.21875 0.15625 -0.609375q0 -0.453125 -0.25 -0.828125q-0.25 -0.375 -0.734375 -0.546875q-0.46875 -0.15625 -1.5625 -0.15625l-3.6875 0l0 -2.0l7.59375 0zm-3.734375 19.906754l-0.65625 2.046875q-1.71875 -0.46875 -2.546875 -1.578125q-0.828125 -1.09375 -0.828125 -2.78125q0 -2.078125 1.421875 -3.4375q1.421875 -1.34375 3.90625 -1.34375q2.609375 0 4.0625 1.359375q1.453125 1.359375 1.453125 3.5625q0 1.921875 -1.140625 3.125q-0.671875 0.71875 -1.9375 1.0625l-0.5 -2.09375q0.828125 -0.1875 1.296875 -0.78125q0.46875 -0.578125 0.46875 -1.421875q0 -1.171875 -0.84375 -1.90625q-0.828125 -0.71875 -2.703125 -0.71875q-1.984375 0 -2.84375 0.71875q-0.84375 0.71875 -0.84375 1.859375q0 0.84375 0.53125 1.453125q0.546875 0.609375 1.703125 0.875zm-3.859375 3.8498993l10.484375 0l0 2.015625l-10.484375 0l0 -2.015625zm0 9.071976l1.140625 0q-0.609375 -0.40625 -0.96875 -1.09375q-0.34375 -0.671875 -0.34375 -1.421875q0 -0.765625 0.328125 -1.375q0.34375 -0.609375 0.953125 -0.875q0.609375 -0.265625 1.6875 -0.265625l4.796875 0l0 2.0l-3.484375 0q-1.609375 0 -1.96875 0.109375q-0.359375 0.109375 -0.578125 0.40625q-0.203125 0.296875 -0.203125 0.75q0 0.515625 0.28125 0.921875q0.28125 0.40625 0.703125 0.546875q0.421875 0.15625 2.046875 0.15625l3.203125 0l0 2.015625l-7.59375 0l0 -1.875zm2.171875 3.2494965l0.296875 2.015625q-0.578125 0.125 -0.890625 0.515625q-0.296875 0.40625 -0.296875 1.109375q0 0.78125 0.28125 1.171875q0.203125 0.265625 0.546875 0.265625q0.21875 0 0.375 -0.140625q0.140625 -0.15625 0.265625 -0.671875q0.53125 -2.4375 0.984375 -3.078125q0.609375 -0.90625 1.703125 -0.90625q0.984375 0 1.65625 0.78125q0.671875 0.78125 0.671875 2.421875q0 1.546875 -0.515625 2.3125q-0.5 0.765625 -1.484375 1.046875l-0.359375 -1.90625q0.453125 -0.109375 0.6875 -0.453125q0.234375 -0.34375 0.234375 -0.96875q0 -0.796875 -0.21875 -1.140625q-0.15625 -0.234375 -0.40625 -0.234375q-0.21875 0 -0.375 0.203125q-0.203125 0.28125 -0.5625 1.875q-0.359375 1.609375 -0.890625 2.25q-0.546875 0.625 -1.5 0.625q-1.046875 0 -1.796875 -0.875q-0.75 -0.859375 -0.75 -2.578125q0 -1.546875 0.625 -2.453125q0.640625 -0.90625 1.71875 -1.1875zm5.421875 12.338623l-1.59375 0l0 -1.375l-3.0625 0q-0.9375 0 -1.09375 0.03125q-0.140625 0.046875 -0.25 0.1875q-0.09375 0.140625 -0.09375 0.34375q0 0.28125 0.1875 0.8125l-1.5625 0.171875q-0.296875 -0.703125 -0.296875 -1.59375q0 -0.546875 0.171875 -0.984375q0.1875 -0.421875 0.46875 -0.640625q0.296875 -0.203125 0.796875 -0.28125q0.359375 -0.0625 1.421875 -0.0625l3.3125 0l0 -0.921875l1.59375 0l0 0.921875l1.515625 0l1.171875 2.015625l-2.6875 0l0 1.375zm-5.171875 5.8025208l-0.34375 2.0q-1.09375 -0.375 -1.671875 -1.21875q-0.578125 -0.828125 -0.578125 -2.078125q0 -1.984375 1.296875 -2.9375q1.03125 -0.75 2.625 -0.75q1.875 0 2.9375 0.984375q1.078125 0.984375 1.078125 2.5q0 1.6875 -1.125 2.671875q-1.109375 0.984375 -3.421875 0.9375l0 -5.03125q-0.890625 0.015625 -1.390625 0.484375q-0.5 0.46875 -0.5 1.15625q0 0.46875 0.25 0.78125q0.265625 0.328125 0.84375 0.5zm2.03125 0.109375q0.875 -0.015625 1.328125 -0.453125q0.453125 -0.421875 0.453125 -1.03125q0 -0.671875 -0.484375 -1.09375q-0.46875 -0.421875 -1.296875 -0.421875l0 3.0zm-4.453125 5.5729675l0 -2.015625l7.59375 0l0 1.859375l-1.078125 0q0.765625 0.484375 1.0 0.859375q0.25 0.390625 0.25 0.875q0 0.6875 -0.375 1.328125l-1.75 -0.625q0.328125 -0.5 0.328125 -0.9375q0 -0.421875 -0.234375 -0.71875q-0.234375 -0.296875 -0.84375 -0.46875q-0.609375 -0.15625 -2.546875 -0.15625l-2.34375 0zm2.171875 3.0630188l0.296875 2.015625q-0.578125 0.125 -0.890625 0.515625q-0.296875 0.40625 -0.296875 1.109375q0 0.78125 0.28125 1.171875q0.203125 0.265625 0.546875 0.265625q0.21875 0 0.375 -0.140625q0.140625 -0.15625 0.265625 -0.671875q0.53125 -2.4375 0.984375 -3.078125q0.609375 -0.90625 1.703125 -0.90625q0.984375 0 1.65625 0.78125q0.671875 0.78125 0.671875 2.421875q0 1.546875 -0.515625 2.3125q-0.5 0.765625 -1.484375 1.046875l-0.359375 -1.90625q0.453125 -0.109375 0.6875 -0.453125q0.234375 -0.34375 0.234375 -0.96875q0 -0.796875 -0.21875 -1.140625q-0.15625 -0.234375 -0.40625 -0.234375q-0.21875 0 -0.375 0.203125q-0.203125 0.28125 -0.5625 1.875q-0.359375 1.609375 -0.890625 2.25q-0.546875 0.625 -1.5 0.625q-1.046875 0 -1.796875 -0.875q-0.75 -0.859375 -0.75 -2.578125q0 -1.546875 0.625 -2.453125q0.640625 -0.90625 1.71875 -1.1875z" fill-rule="nonzero"/><path fill="#000000" fill-opacity="0.0" d="m98.1601 374.43094l259.90552 0l0 37.165344l-259.90552 0z" fill-rule="evenodd"/><path fill="#000000" d="m194.96468 397.51096l-2.015625 0l0 -3.875q0 -1.234375 -0.125 -1.59375q-0.125 -0.359375 -0.421875 -0.5625q-0.296875 -0.203125 -0.703125 -0.203125q-0.515625 0 -0.9375 0.296875q-0.40625 0.28125 -0.5625 0.75q-0.15625 0.46875 -0.15625 1.75l0 3.4375l-2.015625 0l0 -7.59375l1.875 0l0 1.109375q1.0 -1.28125 2.5 -1.28125q0.671875 0 1.21875 0.234375q0.546875 0.234375 0.828125 0.609375q0.296875 0.375 0.40625 0.84375q0.109375 0.46875 0.109375 1.359375l0 4.71875zm7.0307465 0l0 -1.140625q-0.40625 0.609375 -1.09375 0.96875q-0.671875 0.34375 -1.421875 0.34375q-0.765625 0 -1.375 -0.328125q-0.609375 -0.34375 -0.875 -0.953125q-0.265625 -0.609375 -0.265625 -1.6875l0 -4.796875l2.0 0l0 3.484375q0 1.609375 0.109375 1.96875q0.109375 0.359375 0.40625 0.578125q0.296875 0.203125 0.75 0.203125q0.515625 0 0.921875 -0.28125q0.40625 -0.28125 0.546875 -0.703125q0.15625 -0.421875 0.15625 -2.046875l0 -3.203125l2.015625 0l0 7.59375l-1.875 0zm3.8119965 -7.59375l1.84375 0l0 1.03125q1.0 -1.203125 2.375 -1.203125q0.734375 0 1.265625 0.296875q0.53125 0.296875 0.875 0.90625q0.5 -0.609375 1.078125 -0.90625q0.59375 -0.296875 1.25 -0.296875q0.828125 0 1.40625 0.34375q0.59375 0.328125 0.875 0.984375q0.203125 0.484375 0.203125 1.578125l0 4.859375l-2.015625 0l0 -4.34375q0 -1.125 -0.203125 -1.453125q-0.28125 -0.4375 -0.859375 -0.4375q-0.421875 0 -0.796875 0.265625q-0.359375 0.25 -0.53125 0.75q-0.171875 0.5 -0.171875 1.5625l0 3.65625l-2.0 0l0 -4.171875q0 -1.109375 -0.109375 -1.421875q-0.109375 -0.328125 -0.34375 -0.484375q-0.21875 -0.15625 -0.609375 -0.15625q-0.453125 0 -0.828125 0.25q-0.375 0.25 -0.546875 0.734375q-0.15625 0.46875 -0.15625 1.5625l0 3.6875l-2.0 0l0 -7.59375zm19.906754 3.734375l2.0468903 0.65625q-0.46875 1.71875 -1.578125 2.546875q-1.0937653 0.828125 -2.7812653 0.828125q-2.078125 0 -3.4375 -1.421875q-1.34375 -1.421875 -1.34375 -3.90625q0 -2.609375 1.359375 -4.0625q1.359375 -1.453125 3.5625 -1.453125q1.921875 0 3.1250153 1.140625q0.71875 0.671875 1.0625 1.9375l-2.0937653 0.5q-0.1875 -0.828125 -0.78125 -1.296875q-0.578125 -0.46875 -1.421875 -0.46875q-1.171875 0 -1.90625 0.84375q-0.71875 0.828125 -0.71875 2.703125q0 1.984375 0.71875 2.84375q0.71875 0.84375 1.859375 0.84375q0.84375 0 1.453125 -0.53125q0.609375 -0.546875 0.875 -1.703125zm3.3967743 -0.046875q0 -1.0 0.484375 -1.9375q0.5 -0.9375 1.40625 -1.421875q0.90625 -0.5 2.015625 -0.5q1.71875 0 2.828125 1.125q1.109375 1.109375 1.109375 2.8125q0 1.734375 -1.125 2.875q-1.109375 1.125 -2.796875 1.125q-1.046875 0 -2.0 -0.46875q-0.9375 -0.46875 -1.4375 -1.375q-0.484375 -0.921875 -0.484375 -2.234375zm2.046875 0.109375q0 1.125 0.53125 1.734375q0.546875 0.59375 1.34375 0.59375q0.78125 0 1.3125 -0.59375q0.53125 -0.609375 0.53125 -1.75q0 -1.125 -0.53125 -1.71875q-0.53125 -0.609375 -1.3125 -0.609375q-0.796875 0 -1.34375 0.609375q-0.53125 0.59375 -0.53125 1.734375zm6.9057617 -0.109375q0 -1.0 0.484375 -1.9375q0.5 -0.9375 1.40625 -1.421875q0.90625 -0.5 2.015625 -0.5q1.71875 0 2.828125 1.125q1.109375 1.109375 1.109375 2.8125q0 1.734375 -1.125 2.875q-1.109375 1.125 -2.796875 1.125q-1.046875 0 -2.0 -0.46875q-0.9375 -0.46875 -1.4375 -1.375q-0.484375 -0.921875 -0.484375 -2.234375zm2.046875 0.109375q0 1.125 0.53125 1.734375q0.546875 0.59375 1.34375 0.59375q0.78125 0 1.3125 -0.59375q0.53125 -0.609375 0.53125 -1.75q0 -1.125 -0.53125 -1.71875q-0.53125 -0.609375 -1.3125 -0.609375q-0.796875 0 -1.34375 0.609375q-0.53125 0.59375 -0.53125 1.734375zm9.296356 3.796875l-2.015625 0l0 -7.59375l1.859375 0l0 1.078125q0.484375 -0.765625 0.859375 -1.0q0.390625 -0.25 0.875 -0.25q0.6875 0 1.328125 0.375l-0.625 1.75q-0.5 -0.328125 -0.9375 -0.328125q-0.421875 0 -0.71875 0.234375q-0.296875 0.234375 -0.46875 0.84375q-0.15625 0.609375 -0.15625 2.546875l0 2.34375zm10.734879 0l-1.859375 0l0 -1.109375q-0.46875 0.640625 -1.109375 0.96875q-0.625 0.3125 -1.2656097 0.3125q-1.3125 0 -2.25 -1.046875q-0.9375 -1.0625 -0.9375 -2.953125q0 -1.9375 0.90625 -2.9375q0.921875 -1.0 2.3125 -1.0q1.2656097 0 2.2031097 1.046875l0 -3.765625l2.0 0l0 10.484375zm-5.3593597 -3.96875q0 1.21875 0.328125 1.765625q0.5 0.78125 1.3593597 0.78125q0.703125 0 1.1875 -0.578125q0.484375 -0.59375 0.484375 -1.765625q0 -1.3125 -0.46875 -1.890625q-0.46875 -0.578125 -1.203125 -0.578125q-0.71873474 0 -1.2031097 0.578125q-0.484375 0.5625 -0.484375 1.6875zm6.640091 1.796875l2.015625 -0.296875q0.125 0.578125 0.515625 0.890625q0.40625 0.296875 1.109375 0.296875q0.78125 0 1.171875 -0.28125q0.265625 -0.203125 0.265625 -0.546875q0 -0.21875 -0.140625 -0.375q-0.15625 -0.140625 -0.671875 -0.265625q-2.4375 -0.53125 -3.078125 -0.984375q-0.90625 -0.609375 -0.90625 -1.703125q0 -0.984375 0.78125 -1.65625q0.78125 -0.671875 2.421875 -0.671875q1.546875 0 2.3125 0.515625q0.765625 0.5 1.046875 1.484375l-1.90625 0.359375q-0.109375 -0.453125 -0.453125 -0.6875q-0.34375 -0.234375 -0.96875 -0.234375q-0.796875 0 -1.140625 0.21875q-0.234375 0.15625 -0.234375 0.40625q0 0.21875 0.203125 0.375q0.28125 0.203125 1.875 0.5625q1.609375 0.359375 2.25 0.890625q0.625 0.546875 0.625 1.5q0 1.046875 -0.875 1.796875q-0.859375 0.75 -2.578125 0.75q-1.546875 0 -2.453125 -0.625q-0.90625 -0.640625 -1.1875 -1.71875z" fill-rule="nonzero"/><path fill="#000000" fill-opacity="0.0" d="m359.6706 134.78578l0.94488525 226.92912" fill-rule="evenodd"/><path stroke="#000000" stroke-width="1.0" stroke-linejoin="round" stroke-linecap="butt" d="m359.68488 138.21283l0.9163513 220.07507" fill-rule="evenodd"/><path fill="#000000" stroke="#000000" stroke-width="1.0" stroke-linecap="butt" d="m359.68488 138.21284l1.129242 1.1198883l-1.1374207 -3.0850677l-1.1117249 3.0944366z" fill-rule="evenodd"/><path fill="#000000" stroke="#000000" stroke-width="1.0" stroke-linecap="butt" d="m360.60123 358.28787l-1.1292725 -1.119873l1.1374512 3.0850525l1.1116943 -3.0944214z" fill-rule="evenodd"/><path fill="#000000" fill-opacity="0.0" d="m115.502846 375.66214l226.11023 -1.0078735" fill-rule="evenodd"/><path stroke="#000000" stroke-width="1.0" stroke-linejoin="round" stroke-linecap="butt" d="m118.92989 375.6469l219.25613 -0.9773865" fill-rule="evenodd"/><path fill="#000000" stroke="#000000" stroke-width="1.0" stroke-linecap="butt" d="m118.92989 375.64688l1.1195602 -1.1295776l-3.0847244 1.1383362l3.0947495 1.1108093z" fill-rule="evenodd"/><path fill="#000000" stroke="#000000" stroke-width="1.0" stroke-linecap="butt" d="m338.18604 374.66956l-1.1195679 1.1295776l3.0847168 -1.1383362l-3.0947266 -1.1108093z" fill-rule="evenodd"/><path fill="#cfe2f3" d="m440.9134 266.86353l109.165344 0l0 -5.6220703l11.24408 11.24411l-11.24408 11.24408l0 -5.62204l-109.165344 0z" fill-rule="evenodd"/><path stroke="#000000" stroke-width="1.0" stroke-linejoin="round" stroke-linecap="butt" d="m440.9134 266.86353l109.165344 0l0 -5.6220703l11.24408 11.24411l-11.24408 11.24408l0 -5.62204l-109.165344 0z" fill-rule="evenodd"/><path fill="#000000" fill-opacity="0.0" d="m512.2966 72.8294l401.7638 0l0 38.771652l-401.7638 0z" fill-rule="evenodd"/><path fill="#000000" d="m535.6433 97.1894l-2.203125 0l0 -4.234375q0 -1.34375 -0.140625 -1.734375q-0.140625 -0.40625 -0.453125 -0.625q-0.3125 -0.21875 -0.765625 -0.21875q-0.5625 0 -1.015625 0.3125q-0.453125 0.3125 -0.625 0.828125q-0.171875 0.515625 -0.171875 1.90625l0 3.765625l-2.1875 0l0 -8.296875l2.03125 0l0 1.21875q1.09375 -1.40625 2.734375 -1.40625q0.734375 0 1.328125 0.265625q0.609375 0.25 0.90625 0.65625q0.3125 0.40625 0.4375 0.921875q0.125 0.515625 0.125 1.484375l0 5.15625zm7.0234375 -2.640625l2.1875 0.359375q-0.421875 1.203125 -1.328125 1.84375q-0.90625 0.625 -2.28125 0.625q-2.15625 0 -3.203125 -1.421875q-0.8125 -1.125 -0.8125 -2.859375q0 -2.0625 1.078125 -3.21875q1.078125 -1.171875 2.71875 -1.171875q1.859375 0 2.921875 1.21875q1.078125 1.21875 1.03125 3.75l-5.5 0q0.015625 0.96875 0.515625 1.515625q0.515625 0.546875 1.28125 0.546875q0.515625 0 0.859375 -0.28125q0.359375 -0.28125 0.53125 -0.90625zm0.125 -2.21875q-0.015625 -0.953125 -0.484375 -1.453125q-0.46875 -0.5 -1.140625 -0.5q-0.71875 0 -1.1875 0.53125q-0.46875 0.515625 -0.46875 1.421875l3.28125 0zm5.5234375 4.859375l-2.625 -8.296875l2.125 0l1.5625 5.4375l1.421875 -5.4375l2.125 0l1.375 5.4375l1.59375 -5.4375l2.15625 0l-2.65625 8.296875l-2.109375 0l-1.4375 -5.34375l-1.40625 5.34375l-2.125 0zm18.242188 -4.21875l2.234375 0.71875q-0.515625 1.875 -1.71875 2.796875q-1.1875 0.90625 -3.03125 0.90625q-2.28125 0 -3.75 -1.5625q-1.46875 -1.5625 -1.46875 -4.265625q0 -2.859375 1.46875 -4.4375q1.484375 -1.59375 3.890625 -1.59375q2.09375 0 3.40625 1.25q0.78125 0.734375 1.171875 2.109375l-2.28125 0.546875q-0.203125 -0.890625 -0.859375 -1.40625q-0.640625 -0.515625 -1.5625 -0.515625q-1.265625 0 -2.0625 0.921875q-0.796875 0.90625 -0.796875 2.953125q0 2.171875 0.78125 3.09375q0.78125 0.921875 2.03125 0.921875q0.921875 0 1.578125 -0.578125q0.671875 -0.59375 0.96875 -1.859375zm4.2109375 4.21875l0 -11.453125l2.1875 0l0 11.453125l-2.1875 0zm9.8984375 0l0 -1.25q-0.453125 0.671875 -1.1875 1.0625q-0.734375 0.375 -1.5625 0.375q-0.828125 0 -1.5 -0.359375q-0.65625 -0.375 -0.953125 -1.03125q-0.296875 -0.671875 -0.296875 -1.84375l0 -5.25l2.1875 0l0 3.8125q0 1.75 0.125 2.140625q0.125 0.390625 0.4375 0.625q0.328125 0.234375 0.8125 0.234375q0.5625 0 1.0 -0.3125q0.453125 -0.3125 0.609375 -0.765625q0.171875 -0.453125 0.171875 -2.234375l0 -3.5l2.203125 0l0 8.296875l-2.046875 0zm3.5390625 -2.375l2.203125 -0.328125q0.140625 0.640625 0.5625 0.96875q0.4375 0.328125 1.21875 0.328125q0.84375 0 1.28125 -0.3125q0.28125 -0.21875 0.28125 -0.578125q0 -0.25 -0.15625 -0.421875q-0.15625 -0.15625 -0.734375 -0.28125q-2.65625 -0.59375 -3.359375 -1.078125q-0.984375 -0.671875 -0.984375 -1.859375q0 -1.078125 0.84375 -1.8125q0.859375 -0.734375 2.640625 -0.734375q1.703125 0 2.53125 0.5625q0.828125 0.546875 1.140625 1.625l-2.0625 0.390625q-0.140625 -0.484375 -0.515625 -0.734375q-0.359375 -0.265625 -1.046875 -0.265625q-0.875 0 -1.25 0.234375q-0.25 0.171875 -0.25 0.453125q0 0.234375 0.21875 0.390625q0.296875 0.21875 2.046875 0.625q1.765625 0.390625 2.453125 0.96875q0.6875 0.59375 0.6875 1.640625q0 1.140625 -0.953125 1.96875q-0.953125 0.8125 -2.8125 0.8125q-1.703125 0 -2.6875 -0.6875q-0.984375 -0.6875 -1.296875 -1.875zm13.4765625 -5.921875l0 1.75l-1.5 0l0 3.34375q0 1.015625 0.046875 1.1875q0.046875 0.15625 0.1875 0.265625q0.15625 0.109375 0.375 0.109375q0.3125 0 0.890625 -0.203125l0.1875 1.703125q-0.765625 0.328125 -1.734375 0.328125q-0.59375 0 -1.078125 -0.203125q-0.46875 -0.203125 -0.703125 -0.515625q-0.21875 -0.3125 -0.296875 -0.859375q-0.078125 -0.375 -0.078125 -1.546875l0 -3.609375l-1.0 0l0 -1.75l1.0 0l0 -1.65625l2.203125 -1.28125l0 2.9375l1.5 0zm6.328125 5.65625l2.1875 0.359375q-0.421875 1.203125 -1.328125 1.84375q-0.90625 0.625 -2.28125 0.625q-2.15625 0 -3.203125 -1.421875q-0.8125 -1.125 -0.8125 -2.859375q0 -2.0625 1.078125 -3.21875q1.078125 -1.171875 2.71875 -1.171875q1.859375 0 2.921875 1.21875q1.078125 1.21875 1.03125 3.75l-5.5 0q0.015625 0.96875 0.515625 1.515625q0.515625 0.546875 1.28125 0.546875q0.515625 0 0.859375 -0.28125q0.359375 -0.28125 0.53125 -0.90625zm0.125 -2.21875q-0.015625 -0.953125 -0.484375 -1.453125q-0.46875 -0.5 -1.140625 -0.5q-0.71875 0 -1.1875 0.53125q-0.46875 0.515625 -0.46875 1.421875l3.28125 0zm6.0703125 4.859375l-2.1875 0l0 -8.296875l2.03125 0l0 1.171875q0.53125 -0.828125 0.9375 -1.09375q0.421875 -0.265625 0.953125 -0.265625q0.75 0 1.453125 0.40625l-0.6875 1.921875q-0.546875 -0.359375 -1.03125 -0.359375q-0.453125 0 -0.78125 0.25q-0.3125 0.25 -0.5 0.921875q-0.1875 0.65625 -0.1875 2.78125l0 2.5625zm3.3515625 -2.375l2.203125 -0.328125q0.140625 0.640625 0.5625 0.96875q0.4375 0.328125 1.21875 0.328125q0.84375 0 1.28125 -0.3125q0.28125 -0.21875 0.28125 -0.578125q0 -0.25 -0.15625 -0.421875q-0.15625 -0.15625 -0.734375 -0.28125q-2.65625 -0.59375 -3.359375 -1.078125q-0.984375 -0.671875 -0.984375 -1.859375q0 -1.078125 0.84375 -1.8125q0.859375 -0.734375 2.640625 -0.734375q1.703125 0 2.53125 0.5625q0.828125 0.546875 1.140625 1.625l-2.0625 0.390625q-0.140625 -0.484375 -0.515625 -0.734375q-0.359375 -0.265625 -1.046875 -0.265625q-0.875 0 -1.25 0.234375q-0.25 0.171875 -0.25 0.453125q0 0.234375 0.21875 0.390625q0.296875 0.21875 2.046875 0.625q1.765625 0.390625 2.453125 0.96875q0.6875 0.59375 0.6875 1.640625q0 1.140625 -0.953125 1.96875q-0.953125 0.8125 -2.8125 0.8125q-1.703125 0 -2.6875 -0.6875q-0.984375 -0.6875 -1.296875 -1.875zm9.6640625 5.609375l0 -14.6875l3.890625 0l0 1.71875l-1.796875 0l0 11.234375l1.796875 0l0 1.734375l-3.890625 0zm9.140625 -11.53125l0 1.75l-1.5 0l0 3.34375q0 1.015625 0.046875 1.1875q0.046875 0.15625 0.1875 0.265625q0.15625 0.109375 0.375 0.109375q0.3125 0 0.890625 -0.203125l0.1875 1.703125q-0.765625 0.328125 -1.734375 0.328125q-0.59375 0 -1.078125 -0.203125q-0.46875 -0.203125 -0.703125 -0.515625q-0.21875 -0.3125 -0.296875 -0.859375q-0.078125 -0.375 -0.078125 -1.546875l0 -3.609375l-1.0 0l0 -1.75l1.0 0l0 -1.65625l2.203125 -1.28125l0 2.9375l1.5 0zm3.71875 -3.15625l0 4.203125q1.0625 -1.234375 2.53125 -1.234375q0.765625 0 1.375 0.28125q0.609375 0.28125 0.90625 0.71875q0.3125 0.4375 0.421875 0.96875q0.125 0.53125 0.125 1.640625l0 4.875l-2.203125 0l0 -4.390625q0 -1.296875 -0.125 -1.640625q-0.125 -0.359375 -0.4375 -0.5625q-0.3125 -0.21875 -0.796875 -0.21875q-0.546875 0 -0.984375 0.265625q-0.421875 0.265625 -0.625 0.8125q-0.1875 0.53125 -0.1875 1.578125l0 4.15625l-2.203125 0l0 -11.453125l2.203125 0zm9.6796875 11.453125l-2.1875 0l0 -8.296875l2.03125 0l0 1.171875q0.53125 -0.828125 0.9375 -1.09375q0.421875 -0.265625 0.953125 -0.265625q0.75 0 1.453125 0.40625l-0.6875 1.921875q-0.546875 -0.359375 -1.03125 -0.359375q-0.453125 0 -0.78125 0.25q-0.3125 0.25 -0.5 0.921875q-0.1875 0.65625 -0.1875 2.78125l0 2.5625zm8.9296875 -2.640625l2.1875 0.359375q-0.421875 1.203125 -1.328125 1.84375q-0.90625 0.625 -2.28125 0.625q-2.15625 0 -3.203125 -1.421875q-0.8125 -1.125 -0.8125 -2.859375q0 -2.0625 1.078125 -3.21875q1.078125 -1.171875 2.71875 -1.171875q1.859375 0 2.921875 1.21875q1.078125 1.21875 1.03125 3.75l-5.5 0q0.015625 0.96875 0.515625 1.515625q0.515625 0.546875 1.28125 0.546875q0.515625 0 0.859375 -0.28125q0.359375 -0.28125 0.53125 -0.90625zm0.125 -2.21875q-0.015625 -0.953125 -0.484375 -1.453125q-0.46875 -0.5 -1.140625 -0.5q-0.71875 0 -1.1875 0.53125q-0.46875 0.515625 -0.46875 1.421875l3.28125 0zm5.6171875 -0.90625l-2.0 -0.359375q0.34375 -1.203125 1.15625 -1.78125q0.828125 -0.578125 2.4375 -0.578125q1.46875 0 2.1875 0.34375q0.71875 0.34375 1.015625 0.890625q0.296875 0.53125 0.296875 1.953125l-0.03125 2.5625q0 1.09375 0.109375 1.625q0.109375 0.515625 0.390625 1.109375l-2.171875 0q-0.078125 -0.21875 -0.203125 -0.65625q-0.0625 -0.1875 -0.078125 -0.25q-0.5625 0.546875 -1.203125 0.828125q-0.640625 0.265625 -1.375 0.265625q-1.28125 0 -2.015625 -0.6875q-0.734375 -0.703125 -0.734375 -1.765625q0 -0.703125 0.328125 -1.25q0.34375 -0.5625 0.9375 -0.84375q0.609375 -0.296875 1.75 -0.515625q1.546875 -0.296875 2.140625 -0.546875l0 -0.21875q0 -0.625 -0.3125 -0.890625q-0.3125 -0.28125 -1.1875 -0.28125q-0.578125 0 -0.90625 0.234375q-0.328125 0.234375 -0.53125 0.8125zm2.9375 1.78125q-0.421875 0.140625 -1.34375 0.34375q-0.90625 0.1875 -1.1875 0.375q-0.4375 0.296875 -0.4375 0.765625q0 0.46875 0.34375 0.8125q0.34375 0.328125 0.875 0.328125q0.59375 0 1.140625 -0.390625q0.390625 -0.296875 0.515625 -0.734375q0.09375 -0.28125 0.09375 -1.0625l0 -0.4375zm11.9296875 3.984375l-2.046875 0l0 -1.21875q-0.5 0.703125 -1.203125 1.0625q-0.6875 0.34375 -1.390625 0.34375q-1.421875 0 -2.453125 -1.15625q-1.015625 -1.15625 -1.015625 -3.21875q0 -2.109375 0.984375 -3.203125q1.0 -1.09375 2.515625 -1.09375q1.390625 0 2.40625 1.15625l0 -4.125l2.203125 0l0 11.453125zm-5.859375 -4.328125q0 1.328125 0.359375 1.921875q0.53125 0.859375 1.484375 0.859375q0.765625 0 1.296875 -0.640625q0.53125 -0.65625 0.53125 -1.9375q0 -1.421875 -0.515625 -2.046875q-0.515625 -0.640625 -1.328125 -0.640625q-0.78125 0 -1.3125 0.625q-0.515625 0.625 -0.515625 1.859375zm7.2421875 1.953125l2.203125 -0.328125q0.140625 0.640625 0.5625 0.96875q0.4375 0.328125 1.21875 0.328125q0.84375 0 1.28125 -0.3125q0.28125 -0.21875 0.28125 -0.578125q0 -0.25 -0.15625 -0.421875q-0.15625 -0.15625 -0.734375 -0.28125q-2.65625 -0.59375 -3.359375 -1.078125q-0.984375 -0.671875 -0.984375 -1.859375q0 -1.078125 0.84375 -1.8125q0.859375 -0.734375 2.640625 -0.734375q1.703125 0 2.53125 0.5625q0.828125 0.546875 1.140625 1.625l-2.0625 0.390625q-0.140625 -0.484375 -0.515625 -0.734375q-0.359375 -0.265625 -1.046875 -0.265625q-0.875 0 -1.25 0.234375q-0.25 0.171875 -0.25 0.453125q0 0.234375 0.21875 0.390625q0.296875 0.21875 2.046875 0.625q1.765625 0.390625 2.453125 0.96875q0.6875 0.59375 0.6875 1.640625q0 1.140625 -0.953125 1.96875q-0.953125 0.8125 -2.8125 0.8125q-1.703125 0 -2.6875 -0.6875q-0.984375 -0.6875 -1.296875 -1.875zm12.7109375 -9.078125l0 14.6875l-3.890625 0l0 -1.734375l1.8125 0l0 -11.25l-1.8125 0l0 -1.703125l3.890625 0zm2.28125 14.6875l0 -14.6875l3.890625 0l0 1.71875l-1.796875 0l0 11.234375l1.796875 0l0 1.734375l-3.890625 0zm12.890625 -3.234375l-2.203125 0l0 -4.234375q0 -1.34375 -0.140625 -1.734375q-0.140625 -0.40625 -0.453125 -0.625q-0.3125 -0.21875 -0.765625 -0.21875q-0.5625 0 -1.015625 0.3125q-0.453125 0.3125 -0.625 0.828125q-0.171875 0.515625 -0.171875 1.90625l0 3.765625l-2.1875 0l0 -8.296875l2.03125 0l0 1.21875q1.09375 -1.40625 2.734375 -1.40625q0.734375 0 1.328125 0.265625q0.609375 0.25 0.90625 0.65625q0.3125 0.40625 0.4375 0.921875q0.125 0.515625 0.125 1.484375l0 5.15625zm7.6796875 0l0 -1.25q-0.453125 0.671875 -1.1875 1.0625q-0.734375 0.375 -1.5625 0.375q-0.828125 0 -1.5 -0.359375q-0.65625 -0.375 -0.953125 -1.03125q-0.296875 -0.671875 -0.296875 -1.84375l0 -5.25l2.1875 0l0 3.8125q0 1.75 0.125 2.140625q0.125 0.390625 0.4375 0.625q0.328125 0.234375 0.8125 0.234375q0.5625 0 1.0 -0.3125q0.453125 -0.3125 0.609375 -0.765625q0.171875 -0.453125 0.171875 -2.234375l0 -3.5l2.203125 0l0 8.296875l-2.046875 0zm4.1484375 -8.296875l2.03125 0l0 1.125q1.078125 -1.3125 2.578125 -1.3125q0.796875 0 1.375 0.328125q0.59375 0.328125 0.96875 0.984375q0.546875 -0.65625 1.171875 -0.984375q0.640625 -0.328125 1.359375 -0.328125q0.921875 0 1.546875 0.375q0.640625 0.359375 0.953125 1.078125q0.21875 0.53125 0.21875 1.71875l0 5.3125l-2.1875 0l0 -4.75q0 -1.234375 -0.234375 -1.59375q-0.296875 -0.46875 -0.9375 -0.46875q-0.453125 0 -0.859375 0.28125q-0.40625 0.28125 -0.59375 0.828125q-0.171875 0.546875 -0.171875 1.71875l0 3.984375l-2.203125 0l0 -4.546875q0 -1.21875 -0.125 -1.5625q-0.109375 -0.359375 -0.359375 -0.53125q-0.234375 -0.171875 -0.65625 -0.171875q-0.515625 0 -0.921875 0.28125q-0.40625 0.265625 -0.578125 0.78125q-0.171875 0.515625 -0.171875 1.71875l0 4.03125l-2.203125 0l0 -8.296875zm21.742188 4.078125l2.234375 0.71875q-0.515625 1.875 -1.71875 2.796875q-1.1875 0.90625 -3.03125 0.90625q-2.28125 0 -3.75 -1.5625q-1.46875 -1.5625 -1.46875 -4.265625q0 -2.859375 1.46875 -4.4375q1.484375 -1.59375 3.890625 -1.59375q2.09375 0 3.40625 1.25q0.78125 0.734375 1.171875 2.109375l-2.28125 0.546875q-0.203125 -0.890625 -0.859375 -1.40625q-0.640625 -0.515625 -1.5625 -0.515625q-1.265625 0 -2.0625 0.921875q-0.796875 0.90625 -0.796875 2.953125q0 2.171875 0.78125 3.09375q0.78125 0.921875 2.03125 0.921875q0.921875 0 1.578125 -0.578125q0.671875 -0.59375 0.96875 -1.859375zm4.2109375 4.21875l0 -11.453125l2.1875 0l0 11.453125l-2.1875 0zm9.8984375 0l0 -1.25q-0.453125 0.671875 -1.1875 1.0625q-0.734375 0.375 -1.5625 0.375q-0.828125 0 -1.5 -0.359375q-0.65625 -0.375 -0.953125 -1.03125q-0.296875 -0.671875 -0.296875 -1.84375l0 -5.25l2.1875 0l0 3.8125q0 1.75 0.125 2.140625q0.125 0.390625 0.4375 0.625q0.328125 0.234375 0.8125 0.234375q0.5625 0 1.0 -0.3125q0.453125 -0.3125 0.609375 -0.765625q0.171875 -0.453125 0.171875 -2.234375l0 -3.5l2.203125 0l0 8.296875l-2.046875 0zm3.5390625 -2.375l2.203125 -0.328125q0.140625 0.640625 0.5625 0.96875q0.4375 0.328125 1.21875 0.328125q0.84375 0 1.28125 -0.3125q0.28125 -0.21875 0.28125 -0.578125q0 -0.25 -0.15625 -0.421875q-0.15625 -0.15625 -0.734375 -0.28125q-2.65625 -0.59375 -3.359375 -1.078125q-0.984375 -0.671875 -0.984375 -1.859375q0 -1.078125 0.84375 -1.8125q0.859375 -0.734375 2.640625 -0.734375q1.703125 0 2.53125 0.5625q0.828125 0.546875 1.140625 1.625l-2.0625 0.390625q-0.140625 -0.484375 -0.515625 -0.734375q-0.359375 -0.265625 -1.046875 -0.265625q-0.875 0 -1.25 0.234375q-0.25 0.171875 -0.25 0.453125q0 0.234375 0.21875 0.390625q0.296875 0.21875 2.046875 0.625q1.765625 0.390625 2.453125 0.96875q0.6875 0.59375 0.6875 1.640625q0 1.140625 -0.953125 1.96875q-0.953125 0.8125 -2.8125 0.8125q-1.703125 0 -2.6875 -0.6875q-0.984375 -0.6875 -1.296875 -1.875zm13.4765625 -5.921875l0 1.75l-1.5 0l0 3.34375q0 1.015625 0.046875 1.1875q0.046875 0.15625 0.1875 0.265625q0.15625 0.109375 0.375 0.109375q0.3125 0 0.890625 -0.203125l0.1875 1.703125q-0.765625 0.328125 -1.734375 0.328125q-0.59375 0 -1.078125 -0.203125q-0.46875 -0.203125 -0.703125 -0.515625q-0.21875 -0.3125 -0.296875 -0.859375q-0.078125 -0.375 -0.078125 -1.546875l0 -3.609375l-1.0 0l0 -1.75l1.0 0l0 -1.65625l2.203125 -1.28125l0 2.9375l1.5 0zm6.328125 5.65625l2.1875 0.359375q-0.421875 1.203125 -1.328125 1.84375q-0.90625 0.625 -2.28125 0.625q-2.15625 0 -3.203125 -1.421875q-0.8125 -1.125 -0.8125 -2.859375q0 -2.0625 1.078125 -3.21875q1.078125 -1.171875 2.71875 -1.171875q1.859375 0 2.921875 1.21875q1.078125 1.21875 1.03125 3.75l-5.5 0q0.015625 0.96875 0.515625 1.515625q0.515625 0.546875 1.28125 0.546875q0.515625 0 0.859375 -0.28125q0.359375 -0.28125 0.53125 -0.90625zm0.125 -2.21875q-0.015625 -0.953125 -0.484375 -1.453125q-0.46875 -0.5 -1.140625 -0.5q-0.71875 0 -1.1875 0.53125q-0.46875 0.515625 -0.46875 1.421875l3.28125 0zm6.0703125 4.859375l-2.1875 0l0 -8.296875l2.03125 0l0 1.171875q0.53125 -0.828125 0.9375 -1.09375q0.421875 -0.265625 0.953125 -0.265625q0.75 0 1.453125 0.40625l-0.6875 1.921875q-0.546875 -0.359375 -1.03125 -0.359375q-0.453125 0 -0.78125 0.25q-0.3125 0.25 -0.5 0.921875q-0.1875 0.65625 -0.1875 2.78125l0 2.5625zm3.3515625 -2.375l2.203125 -0.328125q0.140625 0.640625 0.5625 0.96875q0.4375 0.328125 1.21875 0.328125q0.84375 0 1.28125 -0.3125q0.28125 -0.21875 0.28125 -0.578125q0 -0.25 -0.15625 -0.421875q-0.15625 -0.15625 -0.734375 -0.28125q-2.65625 -0.59375 -3.359375 -1.078125q-0.984375 -0.671875 -0.984375 -1.859375q0 -1.078125 0.84375 -1.8125q0.859375 -0.734375 2.640625 -0.734375q1.703125 0 2.53125 0.5625q0.828125 0.546875 1.140625 1.625l-2.0625 0.390625q-0.140625 -0.484375 -0.515625 -0.734375q-0.359375 -0.265625 -1.046875 -0.265625q-0.875 0 -1.25 0.234375q-0.25 0.171875 -0.25 0.453125q0 0.234375 0.21875 0.390625q0.296875 0.21875 2.046875 0.625q1.765625 0.390625 2.453125 0.96875q0.6875 0.59375 0.6875 1.640625q0 1.140625 -0.953125 1.96875q-0.953125 0.8125 -2.8125 0.8125q-1.703125 0 -2.6875 -0.6875q-0.984375 -0.6875 -1.296875 -1.875zm12.7109375 -9.078125l0 14.6875l-3.890625 0l0 -1.734375l1.8125 0l0 -11.25l-1.8125 0l0 -1.703125l3.890625 0zm2.28125 14.6875l0 -14.6875l3.890625 0l0 1.71875l-1.796875 0l0 11.234375l1.796875 0l0 1.734375l-3.890625 0zm12.890625 -3.234375l-2.203125 0l0 -4.234375q0 -1.34375 -0.140625 -1.734375q-0.140625 -0.40625 -0.453125 -0.625q-0.3125 -0.21875 -0.765625 -0.21875q-0.5625 0 -1.015625 0.3125q-0.453125 0.3125 -0.625 0.828125q-0.171875 0.515625 -0.171875 1.90625l0 3.765625l-2.1875 0l0 -8.296875l2.03125 0l0 1.21875q1.09375 -1.40625 2.734375 -1.40625q0.734375 0 1.328125 0.265625q0.609375 0.25 0.90625 0.65625q0.3125 0.40625 0.4375 0.921875q0.125 0.515625 0.125 1.484375l0 5.15625zm7.6796875 0l0 -1.25q-0.453125 0.671875 -1.1875 1.0625q-0.734375 0.375 -1.5625 0.375q-0.828125 0 -1.5 -0.359375q-0.65625 -0.375 -0.953125 -1.03125q-0.296875 -0.671875 -0.296875 -1.84375l0 -5.25l2.1875 0l0 3.8125q0 1.75 0.125 2.140625q0.125 0.390625 0.4375 0.625q0.328125 0.234375 0.8125 0.234375q0.5625 0 1.0 -0.3125q0.453125 -0.3125 0.609375 -0.765625q0.171875 -0.453125 0.171875 -2.234375l0 -3.5l2.203125 0l0 8.296875l-2.046875 0zm4.1484375 -8.296875l2.03125 0l0 1.125q1.078125 -1.3125 2.578125 -1.3125q0.796875 0 1.375 0.328125q0.59375 0.328125 0.96875 0.984375q0.546875 -0.65625 1.171875 -0.984375q0.640625 -0.328125 1.359375 -0.328125q0.921875 0 1.546875 0.375q0.640625 0.359375 0.953125 1.078125q0.21875 0.53125 0.21875 1.71875l0 5.3125l-2.1875 0l0 -4.75q0 -1.234375 -0.234375 -1.59375q-0.296875 -0.46875 -0.9375 -0.46875q-0.453125 0 -0.859375 0.28125q-0.40625 0.28125 -0.59375 0.828125q-0.171875 0.546875 -0.171875 1.71875l0 3.984375l-2.203125 0l0 -4.546875q0 -1.21875 -0.125 -1.5625q-0.109375 -0.359375 -0.359375 -0.53125q-0.234375 -0.171875 -0.65625 -0.171875q-0.515625 0 -0.921875 0.28125q-0.40625 0.265625 -0.578125 0.78125q-0.171875 0.515625 -0.171875 1.71875l0 4.03125l-2.203125 0l0 -8.296875zm21.742188 4.078125l2.234375 0.71875q-0.515625 1.875 -1.71875 2.796875q-1.1875 0.90625 -3.03125 0.90625q-2.28125 0 -3.75 -1.5625q-1.46875 -1.5625 -1.46875 -4.265625q0 -2.859375 1.46875 -4.4375q1.484375 -1.59375 3.890625 -1.59375q2.09375 0 3.40625 1.25q0.78125 0.734375 1.171875 2.109375l-2.28125 0.546875q-0.203125 -0.890625 -0.859375 -1.40625q-0.640625 -0.515625 -1.5625 -0.515625q-1.265625 0 -2.0625 0.921875q-0.796875 0.90625 -0.796875 2.953125q0 2.171875 0.78125 3.09375q0.78125 0.921875 2.03125 0.921875q0.921875 0 1.578125 -0.578125q0.671875 -0.59375 0.96875 -1.859375zm3.6953125 -0.046875q0 -1.09375 0.53125 -2.109375q0.546875 -1.03125 1.53125 -1.5625q1.0 -0.546875 2.21875 -0.546875q1.875 0 3.078125 1.21875q1.203125 1.21875 1.203125 3.09375q0 1.875 -1.21875 3.125q-1.203125 1.234375 -3.046875 1.234375q-1.140625 0 -2.1875 -0.515625q-1.03125 -0.515625 -1.578125 -1.515625q-0.53125 -1.0 -0.53125 -2.421875zm2.25 0.109375q0 1.234375 0.578125 1.890625q0.59375 0.65625 1.453125 0.65625q0.859375 0 1.4375 -0.65625q0.59375 -0.65625 0.59375 -1.90625q0 -1.21875 -0.59375 -1.875q-0.578125 -0.65625 -1.4375 -0.65625q-0.859375 0 -1.453125 0.65625q-0.578125 0.65625 -0.578125 1.890625zm7.5234375 -0.109375q0 -1.09375 0.53125 -2.109375q0.546875 -1.03125 1.53125 -1.5625q1.0 -0.546875 2.21875 -0.546875q1.875 0 3.078125 1.21875q1.203125 1.21875 1.203125 3.09375q0 1.875 -1.21875 3.125q-1.203125 1.234375 -3.046875 1.234375q-1.140625 0 -2.1875 -0.515625q-1.03125 -0.515625 -1.578125 -1.515625q-0.53125 -1.0 -0.53125 -2.421875zm2.25 0.109375q0 1.234375 0.578125 1.890625q0.59375 0.65625 1.453125 0.65625q0.859375 0 1.4375 -0.65625q0.59375 -0.65625 0.59375 -1.90625q0 -1.21875 -0.59375 -1.875q-0.578125 -0.65625 -1.4375 -0.65625q-0.859375 0 -1.453125 0.65625q-0.578125 0.65625 -0.578125 1.890625zm10.1328125 4.15625l-2.1875 0l0 -8.296875l2.03125 0l0 1.171875q0.53125 -0.828125 0.9375 -1.09375q0.421875 -0.265625 0.953125 -0.265625q0.75 0 1.453125 0.40625l-0.6875 1.921875q-0.546875 -0.359375 -1.03125 -0.359375q-0.453125 0 -0.78125 0.25q-0.3125 0.25 -0.5 0.921875q-0.1875 0.65625 -0.1875 2.78125l0 2.5625zm11.7421875 0l-2.046875 0l0 -1.21875q-0.5 0.703125 -1.203125 1.0625q-0.6875 0.34375 -1.390625 0.34375q-1.421875 0 -2.453125 -1.15625q-1.015625 -1.15625 -1.015625 -3.21875q0 -2.109375 0.984375 -3.203125q1.0 -1.09375 2.515625 -1.09375q1.390625 0 2.40625 1.15625l0 -4.125l2.203125 0l0 11.453125zm-5.859375 -4.328125q0 1.328125 0.359375 1.921875q0.53125 0.859375 1.484375 0.859375q0.765625 0 1.296875 -0.640625q0.53125 -0.65625 0.53125 -1.9375q0 -1.421875 -0.515625 -2.046875q-0.515625 -0.640625 -1.328125 -0.640625q-0.78125 0 -1.3125 0.625q-0.515625 0.625 -0.515625 1.859375zm7.2421875 1.953125l2.203125 -0.328125q0.140625 0.640625 0.5625 0.96875q0.4375 0.328125 1.21875 0.328125q0.84375 0 1.28125 -0.3125q0.28125 -0.21875 0.28125 -0.578125q0 -0.25 -0.15625 -0.421875q-0.15625 -0.15625 -0.734375 -0.28125q-2.65625 -0.59375 -3.359375 -1.078125q-0.984375 -0.671875 -0.984375 -1.859375q0 -1.078125 0.84375 -1.8125q0.859375 -0.734375 2.640625 -0.734375q1.703125 0 2.53125 0.5625q0.828125 0.546875 1.140625 1.625l-2.0625 0.390625q-0.140625 -0.484375 -0.515625 -0.734375q-0.359375 -0.265625 -1.046875 -0.265625q-0.875 0 -1.25 0.234375q-0.25 0.171875 -0.25 0.453125q0 0.234375 0.21875 0.390625q0.296875 0.21875 2.046875 0.625q1.765625 0.390625 2.453125 0.96875q0.6875 0.59375 0.6875 1.640625q0 1.140625 -0.953125 1.96875q-0.953125 0.8125 -2.8125 0.8125q-1.703125 0 -2.6875 -0.6875q-0.984375 -0.6875 -1.296875 -1.875zm12.7109375 -9.078125l0 14.6875l-3.890625 0l0 -1.734375l1.8125 0l0 -11.25l-1.8125 0l0 -1.703125l3.890625 0z" fill-rule="nonzero"/><path fill="#000000" fill-opacity="0.0" d="m40.459316 72.8294l357.5118 0l0 38.771652l-357.5118 0z" fill-rule="evenodd"/><path fill="#000000" d="m75.90663 97.1894l-2.203125 0l0 -4.234375q0 -1.34375 -0.140625 -1.734375q-0.140625 -0.40625 -0.453125 -0.625q-0.3125 -0.21875 -0.765625 -0.21875q-0.5625 0 -1.015625 0.3125q-0.453125 0.3125 -0.625 0.828125q-0.171875 0.515625 -0.171875 1.90625l0 3.765625l-2.1875 0l0 -8.296875l2.03125 0l0 1.21875q1.09375 -1.40625 2.734375 -1.40625q0.734375 0 1.328125 0.265625q0.609375 0.25 0.90625 0.65625q0.3125 0.40625 0.4375 0.921875q0.125 0.515625 0.125 1.484375l0 5.15625zm7.0234375 -2.640625l2.1875 0.359375q-0.421875 1.203125 -1.328125 1.84375q-0.90625 0.625 -2.28125 0.625q-2.15625 0 -3.203125 -1.421875q-0.8125 -1.125 -0.8125 -2.859375q0 -2.0625 1.078125 -3.21875q1.078125 -1.171875 2.71875 -1.171875q1.859375 0 2.921875 1.21875q1.078125 1.21875 1.03125 3.75l-5.5 0q0.015625 0.96875 0.515625 1.515625q0.515625 0.546875 1.28125 0.546875q0.515625 0 0.859375 -0.28125q0.359375 -0.28125 0.53125 -0.90625zm0.125 -2.21875q-0.015625 -0.953125 -0.484375 -1.453125q-0.46875 -0.5 -1.140625 -0.5q-0.71875 0 -1.1875 0.53125q-0.46875 0.515625 -0.46875 1.421875l3.28125 0zm5.5234375 4.859375l-2.625 -8.296875l2.125 0l1.5625 5.4375l1.421875 -5.4375l2.125 0l1.375 5.4375l1.59375 -5.4375l2.15625 0l-2.65625 8.296875l-2.109375 0l-1.4375 -5.34375l-1.40625 5.34375l-2.125 0zm18.242188 -4.21875l2.234375 0.71875q-0.515625 1.875 -1.71875 2.796875q-1.1875 0.90625 -3.03125 0.90625q-2.28125 0 -3.75 -1.5625q-1.46875 -1.5625 -1.46875 -4.265625q0 -2.859375 1.46875 -4.4375q1.484375 -1.59375 3.890625 -1.59375q2.09375 0 3.40625 1.25q0.78125 0.734375 1.171875 2.109375l-2.28125 0.546875q-0.203125 -0.890625 -0.859375 -1.40625q-0.640625 -0.515625 -1.5625 -0.515625q-1.265625 0 -2.0625 0.921875q-0.796875 0.90625 -0.796875 2.953125q0 2.171875 0.78125 3.09375q0.78125 0.921875 2.03125 0.921875q0.921875 0 1.578125 -0.578125q0.671875 -0.59375 0.96875 -1.859375zm4.2109375 4.21875l0 -11.453125l2.1875 0l0 11.453125l-2.1875 0zm9.8984375 0l0 -1.25q-0.453125 0.671875 -1.1875 1.0625q-0.734375 0.375 -1.5625 0.375q-0.828125 0 -1.5 -0.359375q-0.65625 -0.375 -0.953125 -1.03125q-0.296875 -0.671875 -0.296875 -1.84375l0 -5.25l2.1875 0l0 3.8125q0 1.75 0.125 2.140625q0.125 0.390625 0.4375 0.625q0.328125 0.234375 0.8125 0.234375q0.5625 0 1.0 -0.3125q0.453125 -0.3125 0.609375 -0.765625q0.171875 -0.453125 0.171875 -2.234375l0 -3.5l2.203125 0l0 8.296875l-2.046875 0zm3.5390625 -2.375l2.203125 -0.328125q0.140625 0.640625 0.5625 0.96875q0.4375 0.328125 1.21875 0.328125q0.84375 0 1.28125 -0.3125q0.28125 -0.21875 0.28125 -0.578125q0 -0.25 -0.15625 -0.421875q-0.15625 -0.15625 -0.734375 -0.28125q-2.65625 -0.59375 -3.359375 -1.078125q-0.984375 -0.671875 -0.984375 -1.859375q0 -1.078125 0.84375 -1.8125q0.859375 -0.734375 2.640625 -0.734375q1.703125 0 2.53125 0.5625q0.828125 0.546875 1.140625 1.625l-2.0625 0.390625q-0.140625 -0.484375 -0.515625 -0.734375q-0.359375 -0.265625 -1.046875 -0.265625q-0.875 0 -1.25 0.234375q-0.25 0.171875 -0.25 0.453125q0 0.234375 0.21875 0.390625q0.296875 0.21875 2.046875 0.625q1.765625 0.390625 2.453125 0.96875q0.6875 0.59375 0.6875 1.640625q0 1.140625 -0.953125 1.96875q-0.953125 0.8125 -2.8125 0.8125q-1.703125 0 -2.6875 -0.6875q-0.984375 -0.6875 -1.296875 -1.875zm13.4765625 -5.921875l0 1.75l-1.5 0l0 3.34375q0 1.015625 0.046875 1.1875q0.046875 0.15625 0.1875 0.265625q0.15625 0.109375 0.375 0.109375q0.3125 0 0.890625 -0.203125l0.1875 1.703125q-0.765625 0.328125 -1.734375 0.328125q-0.59375 0 -1.078125 -0.203125q-0.46875 -0.203125 -0.703125 -0.515625q-0.21875 -0.3125 -0.296875 -0.859375q-0.078125 -0.375 -0.078125 -1.546875l0 -3.609375l-1.0 0l0 -1.75l1.0 0l0 -1.65625l2.203125 -1.28125l0 2.9375l1.5 0zm6.328125 5.65625l2.1875 0.359375q-0.421875 1.203125 -1.328125 1.84375q-0.90625 0.625 -2.28125 0.625q-2.15625 0 -3.203125 -1.421875q-0.8125 -1.125 -0.8125 -2.859375q0 -2.0625 1.078125 -3.21875q1.078125 -1.171875 2.71875 -1.171875q1.859375 0 2.921875 1.21875q1.078125 1.21875 1.03125 3.75l-5.5 0q0.015625 0.96875 0.515625 1.515625q0.515625 0.546875 1.28125 0.546875q0.515625 0 0.859375 -0.28125q0.359375 -0.28125 0.53125 -0.90625zm0.125 -2.21875q-0.015625 -0.953125 -0.484375 -1.453125q-0.46875 -0.5 -1.140625 -0.5q-0.71875 0 -1.1875 0.53125q-0.46875 0.515625 -0.46875 1.421875l3.28125 0zm6.0703125 4.859375l-2.1875 0l0 -8.296875l2.03125 0l0 1.171875q0.53125 -0.828125 0.9375 -1.09375q0.421875 -0.265625 0.953125 -0.265625q0.75 0 1.453125 0.40625l-0.6875 1.921875q-0.546875 -0.359375 -1.03125 -0.359375q-0.453125 0 -0.78125 0.25q-0.3125 0.25 -0.5 0.921875q-0.1875 0.65625 -0.1875 2.78125l0 2.5625zm3.3515625 -2.375l2.203125 -0.328125q0.140625 0.640625 0.5625 0.96875q0.4375 0.328125 1.21875 0.328125q0.84375 0 1.28125 -0.3125q0.28125 -0.21875 0.28125 -0.578125q0 -0.25 -0.15625 -0.421875q-0.15625 -0.15625 -0.734375 -0.28125q-2.65625 -0.59375 -3.359375 -1.078125q-0.984375 -0.671875 -0.984375 -1.859375q0 -1.078125 0.84375 -1.8125q0.859375 -0.734375 2.640625 -0.734375q1.703125 0 2.53125 0.5625q0.828125 0.546875 1.140625 1.625l-2.0625 0.390625q-0.140625 -0.484375 -0.515625 -0.734375q-0.359375 -0.265625 -1.046875 -0.265625q-0.875 0 -1.25 0.234375q-0.25 0.171875 -0.25 0.453125q0 0.234375 0.21875 0.390625q0.296875 0.21875 2.046875 0.625q1.765625 0.390625 2.453125 0.96875q0.6875 0.59375 0.6875 1.640625q0 1.140625 -0.953125 1.96875q-0.953125 0.8125 -2.8125 0.8125q-1.703125 0 -2.6875 -0.6875q-0.984375 -0.6875 -1.296875 -1.875zm9.6640625 5.609375l0 -14.6875l3.890625 0l0 1.71875l-1.796875 0l0 11.234375l1.796875 0l0 1.734375l-3.890625 0zm12.890625 -3.234375l-2.203125 0l0 -4.234375q0 -1.34375 -0.140625 -1.734375q-0.140625 -0.40625 -0.453125 -0.625q-0.3125 -0.21875 -0.765625 -0.21875q-0.5625 0 -1.015625 0.3125q-0.453125 0.3125 -0.625 0.828125q-0.171875 0.515625 -0.171875 1.90625l0 3.765625l-2.1875 0l0 -8.296875l2.03125 0l0 1.21875q1.09375 -1.40625 2.734375 -1.40625q0.734375 0 1.328125 0.265625q0.609375 0.25 0.90625 0.65625q0.3125 0.40625 0.4375 0.921875q0.125 0.515625 0.125 1.484375l0 5.15625zm7.6796875 0l0 -1.25q-0.453125 0.671875 -1.1875 1.0625q-0.734375 0.375 -1.5625 0.375q-0.828125 0 -1.5 -0.359375q-0.65625 -0.375 -0.953125 -1.03125q-0.296875 -0.671875 -0.296875 -1.84375l0 -5.25l2.1875 0l0 3.8125q0 1.75 0.125 2.140625q0.125 0.390625 0.4375 0.625q0.328125 0.234375 0.8125 0.234375q0.5625 0 1.0 -0.3125q0.453125 -0.3125 0.609375 -0.765625q0.171875 -0.453125 0.171875 -2.234375l0 -3.5l2.203125 0l0 8.296875l-2.046875 0zm4.1484375 -8.296875l2.03125 0l0 1.125q1.078125 -1.3125 2.578125 -1.3125q0.796875 0 1.375 0.328125q0.59375 0.328125 0.96875 0.984375q0.546875 -0.65625 1.171875 -0.984375q0.640625 -0.328125 1.359375 -0.328125q0.921875 0 1.546875 0.375q0.640625 0.359375 0.953125 1.078125q0.21875 0.53125 0.21875 1.71875l0 5.3125l-2.1875 0l0 -4.75q0 -1.234375 -0.234375 -1.59375q-0.296875 -0.46875 -0.9375 -0.46875q-0.453125 0 -0.859375 0.28125q-0.40625 0.28125 -0.59375 0.828125q-0.171875 0.546875 -0.171875 1.71875l0 3.984375l-2.203125 0l0 -4.546875q0 -1.21875 -0.125 -1.5625q-0.109375 -0.359375 -0.359375 -0.53125q-0.234375 -0.171875 -0.65625 -0.171875q-0.515625 0 -0.921875 0.28125q-0.40625 0.265625 -0.578125 0.78125q-0.171875 0.515625 -0.171875 1.71875l0 4.03125l-2.203125 0l0 -8.296875zm21.742188 4.078125l2.234375 0.71875q-0.515625 1.875 -1.71875 2.796875q-1.1875 0.90625 -3.03125 0.90625q-2.28125 0 -3.75 -1.5625q-1.46875 -1.5625 -1.46875 -4.265625q0 -2.859375 1.46875 -4.4375q1.484375 -1.59375 3.890625 -1.59375q2.09375 0 3.40625 1.25q0.78125 0.734375 1.171875 2.109375l-2.28125 0.546875q-0.203125 -0.890625 -0.859375 -1.40625q-0.640625 -0.515625 -1.5625 -0.515625q-1.265625 0 -2.0625 0.921875q-0.796875 0.90625 -0.796875 2.953125q0 2.171875 0.78125 3.09375q0.78125 0.921875 2.03125 0.921875q0.921875 0 1.578125 -0.578125q0.671875 -0.59375 0.96875 -1.859375zm4.2109375 4.21875l0 -11.453125l2.1875 0l0 11.453125l-2.1875 0zm9.8984375 0l0 -1.25q-0.453125 0.671875 -1.1875 1.0625q-0.734375 0.375 -1.5625 0.375q-0.828125 0 -1.5 -0.359375q-0.65625 -0.375 -0.953125 -1.03125q-0.296875 -0.671875 -0.296875 -1.84375l0 -5.25l2.1875 0l0 3.8125q0 1.75 0.125 2.140625q0.125 0.390625 0.4375 0.625q0.328125 0.234375 0.8125 0.234375q0.5625 0 1.0 -0.3125q0.453125 -0.3125 0.609375 -0.765625q0.171875 -0.453125 0.171875 -2.234375l0 -3.5l2.203125 0l0 8.296875l-2.046875 0zm3.5390625 -2.375l2.203125 -0.328125q0.140625 0.640625 0.5625 0.96875q0.4375 0.328125 1.21875 0.328125q0.84375 0 1.28125 -0.3125q0.28125 -0.21875 0.28125 -0.578125q0 -0.25 -0.15625 -0.421875q-0.15625 -0.15625 -0.734375 -0.28125q-2.65625 -0.59375 -3.359375 -1.078125q-0.984375 -0.671875 -0.984375 -1.859375q0 -1.078125 0.84375 -1.8125q0.859375 -0.734375 2.640625 -0.734375q1.703125 0 2.53125 0.5625q0.828125 0.546875 1.140625 1.625l-2.0625 0.390625q-0.140625 -0.484375 -0.515625 -0.734375q-0.359375 -0.265625 -1.046875 -0.265625q-0.875 0 -1.25 0.234375q-0.25 0.171875 -0.25 0.453125q0 0.234375 0.21875 0.390625q0.296875 0.21875 2.046875 0.625q1.765625 0.390625 2.453125 0.96875q0.6875 0.59375 0.6875 1.640625q0 1.140625 -0.953125 1.96875q-0.953125 0.8125 -2.8125 0.8125q-1.703125 0 -2.6875 -0.6875q-0.984375 -0.6875 -1.296875 -1.875zm13.4765625 -5.921875l0 1.75l-1.5 0l0 3.34375q0 1.015625 0.046875 1.1875q0.046875 0.15625 0.1875 0.265625q0.15625 0.109375 0.375 0.109375q0.3125 0 0.890625 -0.203125l0.1875 1.703125q-0.765625 0.328125 -1.734375 0.328125q-0.59375 0 -1.078125 -0.203125q-0.46875 -0.203125 -0.703125 -0.515625q-0.21875 -0.3125 -0.296875 -0.859375q-0.078125 -0.375 -0.078125 -1.546875l0 -3.609375l-1.0 0l0 -1.75l1.0 0l0 -1.65625l2.203125 -1.28125l0 2.9375l1.5 0zm6.328125 5.65625l2.1875 0.359375q-0.421875 1.203125 -1.328125 1.84375q-0.90625 0.625 -2.28125 0.625q-2.15625 0 -3.203125 -1.421875q-0.8125 -1.125 -0.8125 -2.859375q0 -2.0625 1.078125 -3.21875q1.078125 -1.171875 2.71875 -1.171875q1.859375 0 2.921875 1.21875q1.078125 1.21875 1.03125 3.75l-5.5 0q0.015625 0.96875 0.515625 1.515625q0.515625 0.546875 1.28125 0.546875q0.515625 0 0.859375 -0.28125q0.359375 -0.28125 0.53125 -0.90625zm0.125 -2.21875q-0.015625 -0.953125 -0.484375 -1.453125q-0.46875 -0.5 -1.140625 -0.5q-0.71875 0 -1.1875 0.53125q-0.46875 0.515625 -0.46875 1.421875l3.28125 0zm6.0703125 4.859375l-2.1875 0l0 -8.296875l2.03125 0l0 1.171875q0.53125 -0.828125 0.9375 -1.09375q0.421875 -0.265625 0.953125 -0.265625q0.74998474 0 1.4531097 0.40625l-0.6875 1.921875q-0.54685974 -0.359375 -1.0312347 -0.359375q-0.453125 0 -0.78125 0.25q-0.3125 0.25 -0.5 0.921875q-0.1875 0.65625 -0.1875 2.78125l0 2.5625zm3.3515472 -2.375l2.203125 -0.328125q0.140625 0.640625 0.5625 0.96875q0.4375 0.328125 1.21875 0.328125q0.84375 0 1.28125 -0.3125q0.28125 -0.21875 0.28125 -0.578125q0 -0.25 -0.15625 -0.421875q-0.15625 -0.15625 -0.734375 -0.28125q-2.65625 -0.59375 -3.359375 -1.078125q-0.984375 -0.671875 -0.984375 -1.859375q0 -1.078125 0.84375 -1.8125q0.859375 -0.734375 2.640625 -0.734375q1.703125 0 2.53125 0.5625q0.828125 0.546875 1.140625 1.625l-2.0625 0.390625q-0.140625 -0.484375 -0.515625 -0.734375q-0.359375 -0.265625 -1.046875 -0.265625q-0.875 0 -1.25 0.234375q-0.25 0.171875 -0.25 0.453125q0 0.234375 0.21875 0.390625q0.296875 0.21875 2.046875 0.625q1.765625 0.390625 2.453125 0.96875q0.6875 0.59375 0.6875 1.640625q0 1.140625 -0.953125 1.96875q-0.953125 0.8125 -2.8125 0.8125q-1.703125 0 -2.6875 -0.6875q-0.984375 -0.6875 -1.296875 -1.875zm12.7109375 -9.078125l0 14.6875l-3.890625 0l0 -1.734375l1.8125 0l0 -11.25l-1.8125 0l0 -1.703125l3.890625 0zm2.28125 14.6875l0 -14.6875l3.890625 0l0 1.71875l-1.796875 0l0 11.234375l1.796875 0l0 1.734375l-3.890625 0zm12.890625 -3.234375l-2.203125 0l0 -4.234375q0 -1.34375 -0.140625 -1.734375q-0.140625 -0.40625 -0.453125 -0.625q-0.3125 -0.21875 -0.765625 -0.21875q-0.5625 0 -1.015625 0.3125q-0.453125 0.3125 -0.625 0.828125q-0.171875 0.515625 -0.171875 1.90625l0 3.765625l-2.1875 0l0 -8.296875l2.03125 0l0 1.21875q1.09375 -1.40625 2.734375 -1.40625q0.734375 0 1.328125 0.265625q0.609375 0.25 0.90625 0.65625q0.3125 0.40625 0.4375 0.921875q0.125 0.515625 0.125 1.484375l0 5.15625zm7.6796875 0l0 -1.25q-0.453125 0.671875 -1.1875 1.0625q-0.734375 0.375 -1.5625 0.375q-0.828125 0 -1.5 -0.359375q-0.65625 -0.375 -0.953125 -1.03125q-0.296875 -0.671875 -0.296875 -1.84375l0 -5.25l2.1875 0l0 3.8125q0 1.75 0.125 2.140625q0.125 0.390625 0.4375 0.625q0.328125 0.234375 0.8125 0.234375q0.5625 0 1.0 -0.3125q0.453125 -0.3125 0.609375 -0.765625q0.171875 -0.453125 0.171875 -2.234375l0 -3.5l2.203125 0l0 8.296875l-2.046875 0zm4.148468 -8.296875l2.03125 0l0 1.125q1.078125 -1.3125 2.578125 -1.3125q0.796875 0 1.375 0.328125q0.59375 0.328125 0.96875 0.984375q0.546875 -0.65625 1.171875 -0.984375q0.640625 -0.328125 1.359375 -0.328125q0.921875 0 1.546875 0.375q0.640625 0.359375 0.953125 1.078125q0.21875 0.53125 0.21875 1.71875l0 5.3125l-2.1875 0l0 -4.75q0 -1.234375 -0.234375 -1.59375q-0.296875 -0.46875 -0.9375 -0.46875q-0.453125 0 -0.859375 0.28125q-0.40625 0.28125 -0.59375 0.828125q-0.171875 0.546875 -0.171875 1.71875l0 3.984375l-2.203125 0l0 -4.546875q0 -1.21875 -0.125 -1.5625q-0.109375 -0.359375 -0.359375 -0.53125q-0.234375 -0.171875 -0.65625 -0.171875q-0.515625 0 -0.921875 0.28125q-0.40625 0.265625 -0.578125 0.78125q-0.171875 0.515625 -0.171875 1.71875l0 4.03125l-2.203125 0l0 -8.296875zm21.742188 4.078125l2.234375 0.71875q-0.515625 1.875 -1.71875 2.796875q-1.1875 0.90625 -3.03125 0.90625q-2.28125 0 -3.75 -1.5625q-1.46875 -1.5625 -1.46875 -4.265625q0 -2.859375 1.46875 -4.4375q1.484375 -1.59375 3.890625 -1.59375q2.09375 0 3.40625 1.25q0.78125 0.734375 1.171875 2.109375l-2.28125 0.546875q-0.203125 -0.890625 -0.859375 -1.40625q-0.640625 -0.515625 -1.5625 -0.515625q-1.265625 0 -2.0625 0.921875q-0.796875 0.90625 -0.796875 2.953125q0 2.171875 0.78125 3.09375q0.78125 0.921875 2.03125 0.921875q0.921875 0 1.578125 -0.578125q0.671875 -0.59375 0.96875 -1.859375zm3.6953125 -0.046875q0 -1.09375 0.53125 -2.109375q0.546875 -1.03125 1.53125 -1.5625q1.0 -0.546875 2.21875 -0.546875q1.875 0 3.078125 1.21875q1.203125 1.21875 1.203125 3.09375q0 1.875 -1.21875 3.125q-1.203125 1.234375 -3.046875 1.234375q-1.140625 0 -2.1875 -0.515625q-1.03125 -0.515625 -1.578125 -1.515625q-0.53125 -1.0 -0.53125 -2.421875zm2.25 0.109375q0 1.234375 0.578125 1.890625q0.59375 0.65625 1.453125 0.65625q0.859375 0 1.4375 -0.65625q0.59375 -0.65625 0.59375 -1.90625q0 -1.21875 -0.59375 -1.875q-0.578125 -0.65625 -1.4375 -0.65625q-0.859375 0 -1.453125 0.65625q-0.578125 0.65625 -0.578125 1.890625zm7.5234375 -0.109375q0 -1.09375 0.53125 -2.109375q0.546875 -1.03125 1.53125 -1.5625q1.0 -0.546875 2.21875 -0.546875q1.875 0 3.078125 1.21875q1.203125 1.21875 1.203125 3.09375q0 1.875 -1.21875 3.125q-1.203125 1.234375 -3.046875 1.234375q-1.140625 0 -2.1875 -0.515625q-1.03125 -0.515625 -1.578125 -1.515625q-0.53125 -1.0 -0.53125 -2.421875zm2.25 0.109375q0 1.234375 0.578125 1.890625q0.59375 0.65625 1.453125 0.65625q0.859375 0 1.4375 -0.65625q0.59375 -0.65625 0.59375 -1.90625q0 -1.21875 -0.59375 -1.875q-0.578125 -0.65625 -1.4375 -0.65625q-0.859375 0 -1.453125 0.65625q-0.578125 0.65625 -0.578125 1.890625zm10.1328125 4.15625l-2.1875 0l0 -8.296875l2.03125 0l0 1.171875q0.53125 -0.828125 0.9375 -1.09375q0.421875 -0.265625 0.953125 -0.265625q0.75 0 1.453125 0.40625l-0.6875 1.921875q-0.546875 -0.359375 -1.03125 -0.359375q-0.453125 0 -0.78125 0.25q-0.3125 0.25 -0.5 0.921875q-0.1875 0.65625 -0.1875 2.78125l0 2.5625zm11.7421875 0l-2.046875 0l0 -1.21875q-0.5 0.703125 -1.203125 1.0625q-0.6875 0.34375 -1.390625 0.34375q-1.421875 0 -2.453125 -1.15625q-1.015625 -1.15625 -1.015625 -3.21875q0 -2.109375 0.984375 -3.203125q1.0 -1.09375 2.515625 -1.09375q1.390625 0 2.40625 1.15625l0 -4.125l2.203125 0l0 11.453125zm-5.859375 -4.328125q0 1.328125 0.359375 1.921875q0.53125 0.859375 1.484375 0.859375q0.765625 0 1.296875 -0.640625q0.53125 -0.65625 0.53125 -1.9375q0 -1.421875 -0.515625 -2.046875q-0.515625 -0.640625 -1.328125 -0.640625q-0.78125 0 -1.3125 0.625q-0.515625 0.625 -0.515625 1.859375zm7.2421875 1.953125l2.203125 -0.328125q0.140625 0.640625 0.5625 0.96875q0.4375 0.328125 1.21875 0.328125q0.84375 0 1.28125 -0.3125q0.28125 -0.21875 0.28125 -0.578125q0 -0.25 -0.15625 -0.421875q-0.15625 -0.15625 -0.734375 -0.28125q-2.65625 -0.59375 -3.359375 -1.078125q-0.984375 -0.671875 -0.984375 -1.859375q0 -1.078125 0.84375 -1.8125q0.859375 -0.734375 2.640625 -0.734375q1.703125 0 2.53125 0.5625q0.828125 0.546875 1.140625 1.625l-2.0625 0.390625q-0.140625 -0.484375 -0.515625 -0.734375q-0.359375 -0.265625 -1.046875 -0.265625q-0.875 0 -1.25 0.234375q-0.25 0.171875 -0.25 0.453125q0 0.234375 0.21875 0.390625q0.296875 0.21875 2.046875 0.625q1.765625 0.390625 2.453125 0.96875q0.6875 0.59375 0.6875 1.640625q0 1.140625 -0.953125 1.96875q-0.953125 0.8125 -2.8125 0.8125q-1.703125 0 -2.6875 -0.6875q-0.984375 -0.6875 -1.296875 -1.875zm12.7109375 -9.078125l0 14.6875l-3.890625 0l0 -1.734375l1.8125 0l0 -11.25l-1.8125 0l0 -1.703125l3.890625 0z" fill-rule="nonzero"/><path fill="#cfe2f3" d="m417.44882 88.64829l55.417328 0l0 -3.566925l7.13385 7.1338577l-7.13385 7.1338577l0 -3.5669327l-55.417328 0z" fill-rule="evenodd"/><path stroke="#000000" stroke-width="1.0" stroke-linejoin="round" stroke-linecap="butt" d="m417.44882 88.64829l55.417328 0l0 -3.566925l7.13385 7.1338577l-7.13385 7.1338577l0 -3.5669327l-55.417328 0z" fill-rule="evenodd"/></g></svg>